<?xml version="1.0" standalone="no"?>
<!DOCTYPE svg PUBLIC "-//W3C//DTD SVG 1.1//EN" "http://www.w3.org/Graphics/SVG/1.1/DTD/svg11.dtd" >
<svg xmlns="http://www.w3.org/2000/svg">
<metadata></metadata>
<defs>
<font id="utsaahitalic" horiz-adv-x="816" >
<font-face units-per-em="2048" ascent="1638" descent="-410" />
<missing-glyph horiz-adv-x="407" />
<glyph horiz-adv-x="0" />
<glyph horiz-adv-x="682" />
<glyph unicode=" "  horiz-adv-x="407" />
<glyph unicode="&#x09;" horiz-adv-x="407" />
<glyph unicode="&#xa0;" horiz-adv-x="407" />
<glyph unicode="!" horiz-adv-x="407" d="M82 0l31 147h146l-31 -147h-146zM164 265l79 570l46 215h156l-48 -233l-152 -552h-81z" />
<glyph unicode="&#x22;" horiz-adv-x="521" d="M198 678l9 196l37 176h147l-37 -176l-76 -196h-80zM435 678l9 196l37 176h147l-37 -176l-76 -196h-80z" />
<glyph unicode="#" d="M68 287v107h143l52 260h-195v106h217l62 308h108l-63 -308h226l62 308h108l-62 -308h124v-106h-145l-54 -260h199v-107h-221l-62 -305h-107l61 305h-225l-62 -305h-107l62 305h-121zM318 394h225l53 260h-225z" />
<glyph unicode="$" d="M75 304l130 7q7 -85 45.5 -139t96.5 -75l83 396q-84 37 -122 68q-53 42 -81 99t-28 118q0 113 92.5 200t229.5 87q4 0 28 -1l12 56h71l-13 -65q97 -25 153 -89t68 -170l-124 -6q-10 63 -38 101t-82 57l-75 -360q145 -60 199 -130t54 -156q0 -81 -48.5 -163t-128 -120 t-182.5 -38q-8 0 -20 1l-26 -122h-71l27 131q-104 21 -173.5 105.5t-76.5 207.5zM326 786q0 -54 27 -93.5t102 -76.5l73 344q-55 2 -102.5 -19.5t-73.5 -63t-26 -91.5zM416 85q97 -3 162.5 58t65.5 146q0 55 -30 96t-119 80z" />
<glyph unicode="%" horiz-adv-x="1304" d="M142 727q0 29 13.5 90t39.5 109t57.5 76.5t68.5 42t84 13.5q101 0 153 -51t52 -150q0 -82 -34.5 -174t-95 -134.5t-145.5 -42.5q-94 0 -143.5 53.5t-49.5 167.5zM205 -39l867 1107h117l-863 -1107h-121zM253 703q0 -60 22.5 -85t60.5 -25q45 0 82 34.5t58 112t21 132.5 q0 48 -24.5 74t-63.5 26q-42 0 -77 -33.5t-57 -106t-22 -129.5zM783 182q0 29 13 90t39 109t57.5 76.5t68.5 42t84 13.5q101 0 153 -51t52 -150q0 -82 -34.5 -173.5t-95 -134.5t-145.5 -43q-94 0 -143 53t-49 168zM893 158q0 -60 22.5 -85.5t60.5 -25.5q45 0 81.5 35t58 112 t21.5 132q0 49 -24.5 75t-63.5 26q-42 0 -77 -33.5t-57 -105.5t-22 -130z" />
<glyph unicode="&#x26;" horiz-adv-x="978" d="M115 273q0 83 32.5 146.5t97.5 115.5q49 39 146 82q-37 83 -45 110q-10 41 -10 86q0 61 33.5 122.5t95 97t134.5 35.5q101 0 162.5 -59t61.5 -143q0 -71 -53 -140.5t-208 -147.5q94 -170 180 -279q53 64 100 150l113 -58q-47 -100 -131 -195q47 -59 121 -143l-97 -78 q-73 62 -121 127q-89 -73 -152.5 -99t-141.5 -26q-143 0 -230.5 84t-87.5 212zM247 288q0 -82 55.5 -138t135.5 -56q108 0 214 108q-134 175 -208 314q-97 -46 -139 -89q-58 -60 -58 -139zM470 827q0 -68 45 -153q105 54 150 111q32 38 32 78q0 43 -29 72t-71 29 q-50 0 -88.5 -40.5t-38.5 -96.5z" />
<glyph unicode="'" horiz-adv-x="280" d="M186 678l9 196l37 176h147l-37 -176l-76 -196h-80z" />
<glyph unicode="(" horiz-adv-x="488" d="M124 198q0 173 45.5 322t138.5 296q61 97 197 252h101q-84 -90 -177.5 -252.5t-135.5 -319.5t-42 -315q0 -236 82 -490h-97q-112 247 -112 507z" />
<glyph unicode=")" horiz-adv-x="488" d="M-78 -309q83 91 177 253.5t135.5 319t41.5 315.5q0 236 -82 489h97q113 -247 113 -506q0 -174 -45.5 -323t-138.5 -296q-62 -97 -197 -252h-101z" />
<glyph unicode="*" horiz-adv-x="571" d="M169 857l33 102q114 -40 165 -70q-13 130 -14 179h104q-2 -71 -17 -178q74 37 169 69l33 -102q-91 -30 -178 -40q44 -38 123 -135l-86 -61q-41 56 -98 154q-53 -101 -93 -154l-84 61q83 102 118 135q-92 18 -175 40z" />
<glyph unicode="+" horiz-adv-x="856" d="M132 458v120h285v285h122v-285h286v-120h-286v-288h-122v288h-285z" />
<glyph unicode="," horiz-adv-x="407" d="M35 -212l12 57q85 23 113 155h-81l31 147h148l-27 -128q-24 -116 -75 -169.5t-121 -61.5z" />
<glyph unicode="-" horiz-adv-x="488" d="M68 315l27 130h395l-26 -130h-396z" />
<glyph unicode="." horiz-adv-x="407" d="M84 0l31 147h147l-31 -147h-147z" />
<glyph unicode="/" horiz-adv-x="407" d="M-74 -17l564 1085h112l-564 -1085h-112z" />
<glyph unicode="0" d="M104 344q0 134 39.5 271.5t88.5 219.5t101 128.5t102.5 68.5t112.5 22q120 0 200.5 -89.5t80.5 -258.5q0 -174 -56 -344q-66 -202 -183 -303q-90 -77 -206 -77q-118 0 -199 93t-81 269zM229 311q0 -96 32 -151q44 -75 130 -75q75 0 137 68q88 96 133 281t45 303 q0 113 -43.5 163t-114.5 50q-51 0 -96 -26.5t-85 -90.5q-58 -91 -101 -272q-37 -155 -37 -250z" />
<glyph unicode="1" d="M217 657l24 118q97 38 191 100.5t142 109.5q28 28 54 69h75l-220 -1054h-130l166 793q-107 -85 -302 -136z" />
<glyph unicode="2" d="M86 0q20 94 55.5 157.5t94 120t226.5 190.5q101 81 139 120q53 56 78 109q16 37 16 80q0 72 -51 122.5t-126 50.5q-73 0 -128.5 -51t-78.5 -164l-127 18q19 140 108.5 220.5t223.5 80.5q90 0 162.5 -37.5t109 -104.5t36.5 -139q0 -104 -74 -201q-46 -60 -270 -237 q-96 -76 -142.5 -124.5t-70.5 -91.5h470l-25 -119h-626z" />
<glyph unicode="3" d="M80 275l126 16q15 -111 64 -158.5t128 -47.5q96 0 166 69t70 157q0 78 -52.5 128.5t-140.5 50.5q-10 0 -41 -3l22 108q18 -3 36 -3q111 0 170.5 54t59.5 133q0 72 -49 121.5t-120 49.5q-69 0 -124.5 -50.5t-71.5 -142.5l-128 26q32 129 121.5 200t211.5 71q129 0 209 -78 t80 -192q0 -83 -43.5 -145t-129.5 -103q61 -36 91.5 -87.5t30.5 -118.5q0 -141 -105.5 -244.5t-252.5 -103.5q-142 0 -230 80t-98 213z" />
<glyph unicode="4" d="M67 268l27 128l588 654h106l-140 -668h147l-23 -114h-148l-56 -268h-130l57 268h-428zM219 382h299l92 439z" />
<glyph unicode="5" d="M102 279v21l132 13q-1 -28 -1 -34q0 -47 24 -95t65 -73.5t87 -25.5q60 0 122.5 41.5t101 121t38.5 157.5q0 88 -52 141t-136 53q-57 0 -107.5 -27t-94.5 -82l-113 8l158 537h513l-25 -119h-399l-78 -267q44 33 91 49t96 16q120 0 197.5 -79.5t77.5 -217.5 q0 -121 -53 -223t-145.5 -157t-200.5 -55q-90 0 -159.5 41t-104 112.5t-34.5 143.5z" />
<glyph unicode="6" d="M122 350q0 158 56 327q43 130 106.5 214t134.5 123.5t161 39.5q107 0 175 -67t78 -192l-121 -11q-10 85 -48 123t-93 38q-58 0 -117 -45t-101 -133.5t-58 -157.5q54 45 108.5 67.5t107.5 22.5q119 0 197 -81.5t78 -220.5q0 -178 -116 -305q-100 -110 -243 -110 q-131 0 -218 95.5t-87 272.5zM250 295q0 -89 55 -149.5t125 -60.5q48 0 102.5 37t92.5 112t38 150q0 96 -52.5 153.5t-127.5 57.5q-86 0 -159.5 -84t-73.5 -216z" />
<glyph unicode="7" d="M178 916l25 119h670l-25 -119q-170 -149 -297 -385q-149 -273 -203 -531h-135q17 106 73 255q66 180 174.5 357t240.5 304h-523z" />
<glyph unicode="8" d="M110 267q0 115 59 198t162 112q-59 32 -88.5 82.5t-29.5 108.5q0 95 69 176q92 110 249 110q138 0 217.5 -74t79.5 -182q0 -76 -43 -137.5t-135 -98.5q63 -39 90 -84q35 -58 35 -135q0 -141 -99.5 -251.5t-265.5 -110.5q-133 0 -216.5 82t-83.5 204zM240 256 q0 -43 21 -83.5t64 -64t98 -23.5q105 0 171 99q51 77 51 167q0 73 -47.5 119.5t-124.5 46.5q-98 0 -165.5 -72.5t-67.5 -188.5zM341 763q0 -68 43 -109t119 -41q89 0 144.5 54t55.5 133q0 66 -43.5 108t-118.5 42q-58 0 -106 -26.5t-71 -72t-23 -88.5z" />
<glyph unicode="9" d="M99 241l122 12q12 -88 50 -125.5t90 -37.5q74 0 138 65q94 94 138 271q-65 -49 -115.5 -69.5t-103.5 -20.5q-96 0 -172 64q-100 84 -100 241q0 177 116 304q100 109 244 109q131 0 216.5 -96.5t85.5 -272.5q0 -171 -57 -338q-68 -196 -184 -289q-94 -76 -213 -76 q-108 0 -177.5 67.5t-77.5 191.5zM271 656q0 -99 53 -157.5t125 -58.5q54 0 107 36.5t90.5 109t37.5 149.5q0 60 -25 111.5t-68 77.5t-88 26q-43 0 -84.5 -23t-77 -67t-53 -102t-17.5 -102z" />
<glyph unicode=":" horiz-adv-x="407" d="M84 0l31 147h146l-31 -147h-146zM212 614l31 146h146l-30 -146h-147z" />
<glyph unicode=";" horiz-adv-x="407" d="M35 -212l12 57q85 23 113 155h-81l31 147h148l-27 -128q-24 -116 -75 -169.5t-121 -61.5zM208 614l30 146h146l-30 -146h-146z" />
<glyph unicode="&#x3c;" horiz-adv-x="856" d="M132 459v120l695 294v-128l-551 -227l551 -228v-128z" />
<glyph unicode="=" horiz-adv-x="856" d="M132 299v120h693v-120h-693zM132 617v120h693v-120h-693z" />
<glyph unicode="&#x3e;" horiz-adv-x="856" d="M132 162v128l550 228l-550 227v128l695 -294v-120z" />
<glyph unicode="?" d="M186 763q31 153 119.5 229t214.5 76q86 0 157.5 -35.5t108 -96t36.5 -125.5q0 -80 -53 -152q-39 -55 -177 -164q-94 -76 -122.5 -119t-39.5 -113h-123q7 65 29.5 115.5t68.5 103.5q27 30 128 112t131 132.5t30 93.5q0 57 -47.5 100.5t-123.5 43.5q-81 0 -135 -51.5 t-72 -171.5zM243 0l31 147h147l-31 -147h-147z" />
<glyph unicode="@" horiz-adv-x="1489" d="M79 336q0 175 72 333q87 194 248 297t390 103q178 0 319 -72.5t223 -216.5q69 -124 69 -269q0 -208 -146 -369q-130 -145 -285 -145q-49 0 -79.5 15t-44.5 43q-9 18 -14 62q-46 -54 -104 -86.5t-116 -32.5q-63 0 -123.5 37t-98 114.5t-37.5 169.5q0 114 58.5 228.5 t145 171.5t168.5 57q62 0 118.5 -32.5t97.5 -99.5l24 111h129l-103 -480q-22 -100 -22 -111q0 -19 14.5 -33t35.5 -14q38 0 100 43q81 58 129 154t48 199q0 119 -61.5 223t-183 166t-267.5 62q-168 0 -306.5 -78t-215 -224.5t-76.5 -314.5q0 -175 76.5 -302t221 -187.5 t319.5 -60.5q188 0 314.5 63t189.5 154h130q-37 -76 -126 -154t-211 -123.5t-295 -45.5q-159 0 -293 41t-228.5 123t-142.5 189q-61 135 -61 292zM485 311q0 -98 46.5 -152.5t106.5 -54.5q40 0 84.5 24t85 71t66 120t25.5 146q0 97 -48 150.5t-118 53.5q-46 0 -86.5 -23 t-78 -74.5t-60.5 -125.5t-23 -135z" />
<glyph unicode="A" horiz-adv-x="978" d="M-29 0l595 1050h165l173 -1050h-136l-51 302h-424l-168 -302h-154zM353 410h347l-41 264q-23 157 -29 261q-36 -90 -104 -214z" />
<glyph unicode="B" horiz-adv-x="978" d="M64 0l220 1050h325q88 0 131 -8q71 -12 119 -42.5t74.5 -83t26.5 -116.5q0 -86 -47.5 -152t-145.5 -100q85 -28 127.5 -84.5t42.5 -131.5q0 -86 -50 -165.5t-132 -123t-183 -43.5h-508zM229 119h239q95 0 128 6q67 12 108.5 39.5t65 72.5t23.5 95q0 73 -46 111.5 t-176 38.5h-266zM330 601h213q152 0 219 49t67 142q0 44 -20.5 76.5t-55.5 47t-131 14.5h-223z" />
<glyph unicode="C" horiz-adv-x="1059" d="M133 433q0 284 171 469q151 166 377 166q167 0 270.5 -89.5t119.5 -241.5l-131 -12q-21 114 -85.5 170.5t-167.5 56.5q-192 0 -311 -172q-103 -147 -103 -350q0 -161 79.5 -246.5t206.5 -85.5q109 0 197 71t128 200l139 -19q-66 -182 -192 -275t-283 -93q-191 0 -303 117 t-112 334z" />
<glyph unicode="D" horiz-adv-x="1059" d="M65 0l219 1050h317q114 0 174 -17q86 -22 146.5 -79t91.5 -142t31 -191q0 -127 -38.5 -231t-100.5 -183.5t-129.5 -124t-159.5 -66.5q-70 -16 -173 -16h-378zM231 119h166q112 0 199 21q55 13 94 38q50 32 92 85q54 70 86.5 160t32.5 204q0 128 -44 196t-113 91 q-51 16 -158 16h-186z" />
<glyph unicode="E" horiz-adv-x="978" d="M66 0l220 1050h757l-25 -120h-617l-69 -326h602l-25 -120h-602l-76 -365h661l-25 -119h-801z" />
<glyph unicode="F" horiz-adv-x="896" d="M67 0l219 1050h682l-25 -120h-542l-69 -334h552l-26 -120h-552l-99 -476h-140z" />
<glyph unicode="G" horiz-adv-x="1141" d="M142 420q0 189 83.5 344t210.5 229.5t283 74.5q112 0 200.5 -40.5t136 -108.5t67.5 -177l-137 -15q-22 109 -92 166.5t-179 57.5q-114 0 -213 -62t-158 -187t-59 -284q0 -158 78 -239t216 -81q136 0 294 90l47 226h-319l25 119h459l-89 -428q-87 -54 -198 -88.5 t-218 -34.5q-229 0 -342 138q-96 117 -96 300z" />
<glyph unicode="H" horiz-adv-x="1059" d="M62 0l219 1050h140l-91 -436h544l91 436h141l-220 -1050h-140l103 495h-543l-104 -495h-140z" />
<glyph unicode="I" horiz-adv-x="407" d="M84 0l220 1050h139l-219 -1050h-140z" />
<glyph unicode="J" horiz-adv-x="733" d="M49 211q0 48 10 95l131 9q-12 -61 -12 -89q0 -58 36.5 -93t100.5 -35q47 0 82 21t58 66q17 33 35 121l156 744h139l-159 -767q-34 -162 -112.5 -231.5t-201.5 -69.5q-130 0 -196.5 60t-66.5 169z" />
<glyph unicode="K" horiz-adv-x="978" d="M65 0l219 1050h141l-106 -506l570 506h198l-488 -428l358 -622h-157l-303 532l-220 -191l-72 -341h-140z" />
<glyph unicode="L" d="M59 0l219 1050h140l-194 -931h545l-25 -119h-685z" />
<glyph unicode="M" horiz-adv-x="1221" d="M64 0l220 1050h172l106 -681q21 -133 27 -257q44 106 146 288l368 650h176l-219 -1050h-139l110 511q38 176 109 396q-45 -102 -112 -220l-391 -687h-135l-105 673q-15 92 -21 216q-18 -139 -35 -220l-140 -669h-137z" />
<glyph unicode="N" horiz-adv-x="1059" d="M72 0l219 1050h136l177 -394q81 -181 128 -304q28 -71 63 -193q20 132 49 273l129 618h137l-219 -1050h-139l-261 606q-69 161 -108 283q-11 -102 -41 -251l-134 -638h-136z" />
<glyph unicode="O" horiz-adv-x="1141" d="M134 440q0 280 162 454t394 174q196 0 319.5 -128t123.5 -343q0 -153 -63 -284q-46 -98 -117 -169.5t-152 -109.5q-107 -52 -227 -52q-126 0 -229.5 60t-157 168t-53.5 230zM272 432q0 -92 38.5 -169.5t114 -121t159.5 -43.5q81 0 154 38.5t131 106.5t91 168t33 197 q0 157 -87.5 250t-216.5 93q-165 0 -291 -141t-126 -378z" />
<glyph unicode="P" horiz-adv-x="978" d="M63 0l220 1050h438q114 0 171 -26.5t94 -89.5t37 -142q0 -65 -26.5 -132.5t-67 -111t-82 -66t-88.5 -32.5q-101 -24 -204 -24h-263l-89 -426h-140zM317 545h231q135 0 198 29t101 88.5t38 125.5q0 52 -20 84.5t-56.5 48t-140.5 15.5h-269z" />
<glyph unicode="Q" horiz-adv-x="1141" d="M135 458q0 137 53 262q43 103 113 178t153 116q109 54 237 54q196 0 319.5 -128t123.5 -343q0 -158 -66 -291.5t-182 -221.5q53 -63 144 -121l-63 -83q-95 62 -171 151q-106 -50 -203 -50q-77 0 -169.5 29t-155 88.5t-98 153t-35.5 206.5zM274 447q0 -177 110 -274 q86 -75 184 -75q78 0 140 24q-65 60 -134 96l51 87q47 -20 84.5 -47.5t90.5 -82.5q87 67 141 185t54 245q0 159 -87.5 252.5t-214.5 93.5q-106 0 -204 -62t-156.5 -181.5t-58.5 -260.5z" />
<glyph unicode="R" horiz-adv-x="1059" d="M69 0l220 1050h440q130 0 197.5 -22t105.5 -82t38 -152q0 -128 -83.5 -212.5t-270.5 -109.5q57 -42 87 -83q66 -93 106 -191l80 -198h-157l-75 195q-41 106 -93 184q-36 53 -73.5 70t-120.5 17h-164l-97 -466h-140zM330 580h194q135 0 176 4q79 7 130 35t79 75.5 t28 101.5q0 46 -21 80t-54.5 46t-114.5 12h-342z" />
<glyph unicode="S" horiz-adv-x="978" d="M103 339l138 13l-2 -36q0 -61 28 -111.5t92.5 -78t153.5 -27.5q126 0 192 55t66 126q0 49 -35 90q-36 40 -195 109q-124 54 -169 82q-71 47 -105 101.5t-34 125.5q0 81 44.5 146t130 99.5t193.5 34.5q128 0 216 -43t128 -115t40 -137q0 -6 -1 -21l-136 -11q0 44 -7 70 q-15 43 -45 73t-82.5 48.5t-117.5 18.5q-115 0 -179 -52q-48 -39 -48 -104q0 -39 20 -69.5t72 -59.5q37 -21 177 -82q113 -51 156 -79q57 -38 88 -92t31 -123q0 -85 -52 -157t-143.5 -111.5t-209.5 -39.5q-179 0 -291.5 77.5t-113.5 279.5z" />
<glyph unicode="T" horiz-adv-x="896" d="M183 930l25 120h826l-25 -120h-342l-194 -930h-140l194 930h-344z" />
<glyph unicode="U" horiz-adv-x="1059" d="M142 287q0 55 29 190l120 573h140l-135 -645q-16 -81 -16 -119q0 -85 66.5 -136.5t167.5 -51.5q80 0 149 37t109.5 108.5t72.5 228.5l121 578h140l-128 -616q-33 -158 -86.5 -250t-149 -147.5t-221.5 -55.5q-119 0 -206 39.5t-130 109t-43 157.5z" />
<glyph unicode="V" horiz-adv-x="978" d="M182 1050h135l122 -626q34 -171 44 -275q65 135 108 213l374 688h145l-576 -1050h-150z" />
<glyph unicode="W" horiz-adv-x="1384" d="M183 1050h143l24 -519q2 -38 7 -202q2 -46 2 -65q0 -12 -1 -71q87 179 126 252l319 605h145l35 -614q6 -105 8 -253q13 36 46 108q52 117 77 167l299 592h144l-535 -1050h-150l-35 636q-5 81 -8 200q-44 -99 -73 -154l-364 -682h-144z" />
<glyph unicode="X" horiz-adv-x="978" d="M-47 0l502 531l-297 519h154l136 -238q53 -94 61 -110q19 -35 41 -83q53 71 164 188l230 243h184l-508 -542l288 -508h-153l-170 307q-25 45 -58 116q-39 -52 -95 -111l-292 -312h-187z" />
<glyph unicode="Y" horiz-adv-x="978" d="M171 1050h150l155 -307q51 -100 99 -215q53 98 145 213l246 309h167l-501 -655l-82 -395h-140l84 406z" />
<glyph unicode="Z" horiz-adv-x="896" d="M36 0l13 105l526 628l109 132q33 40 64 74q-67 -8 -94 -8l-34 1l-41 -1l-41 -1h-353l25 120h724l-13 -110l-563 -669q-104 -124 -132 -156q32 5 41 5h572l-25 -120h-778z" />
<glyph unicode="[" horiz-adv-x="407" d="M9 -287l276 1337h289l-21 -100h-157l-238 -1138h158l-20 -99h-287z" />
<glyph unicode="\" horiz-adv-x="407" d="M125 1068h100l176 -1085h-100z" />
<glyph unicode="]" horiz-adv-x="407" d="M-86 -287l21 99h158l238 1138h-158l21 100h289l-283 -1337h-286z" />
<glyph unicode="^" horiz-adv-x="688" d="M103 494l253 574h104l254 -574h-130l-177 427l-171 -427h-133z" />
<glyph unicode="_" d="M-93 -198h854v-93h-854v93z" />
<glyph unicode="`" horiz-adv-x="488" d="M213 1050h158l83 -197h-101z" />
<glyph unicode="a" d="M64 203q0 64 29 113t77 79t118 42q44 9 166 14t175 26q15 53 15 88q0 45 -33 71q-45 36 -132 36q-82 0 -133.5 -36.5t-75.5 -102.5l-131 11q40 113 127 173.5t219 60.5q142 0 224 -68q63 -50 63 -130q0 -61 -18 -141l-42 -189q-20 -90 -20 -147q0 -36 15 -103h-131 q-10 37 -15 95q-67 -58 -129.5 -85t-132.5 -27q-106 0 -170.5 62t-64.5 158zM193 208q0 -55 38 -90t107 -35q64 0 123.5 34t94 95t53.5 173q-27 -11 -58 -16.5t-104 -11.5q-113 -10 -159.5 -25.5t-70.5 -49.5t-24 -74z" />
<glyph unicode="b" d="M49 0l219 1050h129l-78 -376q62 57 112 80.5t105 23.5q106 0 177.5 -79.5t71.5 -231.5q0 -101 -29 -185t-71 -141t-87 -91t-92.5 -50.5t-90.5 -16.5q-76 0 -133 39.5t-89 121.5l-30 -144h-114zM240 288q0 -98 46.5 -148.5t115.5 -50.5q68 0 125 47.5t93.5 148.5t36.5 186 q0 96 -46 149t-114 53q-70 0 -129 -54t-98 -166q-29 -84 -29 -141z" />
<glyph unicode="c" horiz-adv-x="733" d="M82 287q0 125 49.5 245t141.5 183t210 63q123 0 194.5 -69.5t71.5 -182.5l-128 -9q0 72 -41.5 113t-108.5 41q-78 0 -135 -49.5t-90 -150t-33 -193.5q0 -98 43 -146.5t106 -48.5t121 48t91 146l129 -14q-49 -142 -138.5 -211t-204.5 -69q-124 0 -201 80t-77 224z" />
<glyph unicode="d" d="M77 294q0 139 57 254t142.5 172.5t171.5 57.5q142 0 214 -137l86 409h129l-219 -1050h-120l23 110q-111 -127 -232 -127q-108 0 -180 79.5t-72 231.5zM206 319q0 -80 16 -126t54 -76t91 -30q88 0 159 91q96 122 96 301q0 90 -47 141t-119 51q-46 0 -84.5 -21t-76 -70.5 t-63.5 -126t-26 -134.5z" />
<glyph unicode="e" d="M76 305q0 125 57.5 242t149 174t198.5 57q136 0 217.5 -84.5t81.5 -230.5q0 -56 -10 -115h-560q-3 -22 -3 -40q0 -107 49 -163t120 -56q66 0 130.5 43.5t100.5 125.5l126 -12q-27 -94 -124.5 -178.5t-233.5 -84.5q-84 0 -154.5 39t-107.5 113.5t-37 169.5zM231 447h426 q1 20 1 28q0 98 -48.5 150t-125.5 52q-83 0 -151.5 -57.5t-101.5 -172.5z" />
<glyph unicode="f" horiz-adv-x="407" d="M67 0l138 660h-116l21 100h116l22 109q17 80 35 116t59.5 59.5t112.5 23.5q49 0 143 -21l-24 -113q-66 17 -110 17q-38 0 -57.5 -19t-34.5 -90l-17 -82h145l-21 -100h-145l-138 -660h-129z" />
<glyph unicode="g" d="M38 -107q0 17 4 38l131 -12v-12q0 -35 10 -55q12 -22 39 -34q35 -16 91 -16q117 0 169 61q34 41 62 178l13 61q-101 -102 -215 -102q-115 0 -192.5 85t-77.5 240q0 128 61 235.5t145.5 162.5t174.5 55q149 0 230 -142l26 124h119l-154 -734q-25 -121 -65.5 -188.5 t-113.5 -104.5t-168 -37q-91 0 -157.5 23.5t-99 69t-32.5 104.5zM203 337q0 -79 15 -118q22 -55 61.5 -84t88.5 -29q64 0 127 44.5t102 138.5t39 179q0 94 -52 149.5t-129 55.5q-47 0 -91.5 -25.5t-82.5 -77.5t-58 -124t-20 -109z" />
<glyph unicode="h" d="M49 0l219 1050h129l-83 -403q72 70 134.5 100.5t127.5 30.5q95 0 147 -50t52 -132q0 -40 -22 -147l-94 -449h-130l97 460q21 101 21 126q0 38 -26 61.5t-75 23.5q-70 0 -133.5 -37t-100 -101t-66.5 -207l-68 -326h-129z" />
<glyph unicode="i" horiz-adv-x="326" d="M44 0l159 760h129l-159 -760h-129zM233 903l30 147h129l-30 -147h-129z" />
<glyph unicode="j" horiz-adv-x="326" d="M-178 -286l23 111q45 -13 79 -13q42 0 66.5 28t51.5 153l159 767h130l-165 -791q-31 -148 -71 -202q-53 -71 -149 -71q-51 0 -124 18zM233 903l30 147h129l-31 -147h-128z" />
<glyph unicode="k" horiz-adv-x="733" d="M50 0l220 1050h129l-136 -651l378 361h171l-324 -283l196 -477h-142l-152 390l-157 -136l-53 -254h-130z" />
<glyph unicode="l" horiz-adv-x="326" d="M39 0l219 1050h129l-219 -1050h-129z" />
<glyph unicode="m" horiz-adv-x="1221" d="M48 0l159 760h130l-27 -125q72 81 129 112t124 31q71 0 118.5 -38t62.5 -105q58 72 122 107.5t135 35.5q95 0 142.5 -45.5t47.5 -126.5q0 -35 -16 -116l-102 -490h-130l105 503q13 61 13 88q0 37 -23.5 58.5t-66.5 21.5q-58 0 -118 -35t-93.5 -92t-58.5 -175l-77 -369 h-130l107 513q12 53 12 75q0 37 -23.5 60t-60.5 23q-55 0 -115.5 -35t-98.5 -98t-62 -179l-75 -359h-130z" />
<glyph unicode="n" d="M49 0l159 760h117l-28 -132q77 78 143.5 114t135.5 36q93 0 145.5 -50.5t52.5 -133.5q0 -43 -19 -134l-96 -460h-130l101 482q15 70 15 104q0 38 -26 61.5t-76 23.5q-99 0 -176.5 -71.5t-114.5 -245.5l-74 -354h-129z" />
<glyph unicode="o" d="M72 289q0 222 131 368q108 121 283 121q138 0 222 -86t84 -232q0 -131 -53 -244t-151 -173t-206 -60q-88 0 -161 38t-111 107.5t-38 160.5zM201 301q0 -107 51.5 -162.5t131.5 -55.5q41 0 82 17t76 51t60 78.5t40 94.5q22 71 22 136q0 103 -52 160t-131 57 q-61 0 -111 -29t-90.5 -84.5t-59.5 -130t-19 -132.5z" />
<glyph unicode="p" d="M-15 -291l220 1051h119l-22 -106q67 70 119.5 97t111.5 27q109 0 180.5 -79.5t71.5 -226.5q0 -119 -39.5 -216.5t-97 -157t-116 -87.5t-120.5 -28q-136 0 -212 139l-85 -413h-130zM241 311q0 -85 12 -118q18 -47 59 -75.5t95 -28.5q111 0 180 125.5t69 256.5 q0 97 -46.5 149.5t-114.5 52.5q-50 0 -92 -26t-78 -78t-60 -127t-24 -131z" />
<glyph unicode="q" d="M75 292q0 142 55.5 256.5t142 172t177.5 57.5q70 0 127 -39t92 -118l29 139h112l-219 -1051h-130l79 377q-111 -103 -213 -103q-106 0 -179 80.5t-73 228.5zM203 309q0 -112 46.5 -166t116.5 -54q59 0 118.5 48.5t98 146t38.5 188.5q0 93 -48 146t-118 53q-68 0 -118 -44 q-67 -58 -105 -166q-29 -83 -29 -152z" />
<glyph unicode="r" horiz-adv-x="488" d="M49 0l159 760h114l-32 -155q59 88 115 130.5t115 42.5q38 0 95 -28l-53 -121q-34 25 -74 25q-68 0 -139.5 -76t-112.5 -273l-64 -305h-123z" />
<glyph unicode="s" horiz-adv-x="733" d="M61 260l129 8q0 -56 17.5 -95.5t63.5 -64.5t108 -25q86 0 129 34.5t43 80.5q0 34 -26 64q-27 30 -129.5 74t-131.5 62q-48 29 -72 69t-24 91q0 91 71.5 155.5t200.5 64.5q143 0 217.5 -66.5t77.5 -174.5l-126 -9q-3 69 -49 109t-130 40q-67 0 -104 -30.5t-37 -66.5 t32 -63q21 -19 111 -57q149 -65 187 -102q62 -59 62 -145q0 -56 -35 -110.5t-106 -87t-168 -32.5q-131 0 -224 65q-87 62 -87 212z" />
<glyph unicode="t" horiz-adv-x="407" d="M82 103q0 25 19 115l92 442h-102l21 100h102l39 187l149 90l-58 -277h127l-21 -100h-127l-88 -420q-17 -80 -17 -96q0 -23 13.5 -35t43.5 -12q43 0 77 8l-22 -106q-46 -12 -90 -12q-77 0 -123 38q-35 29 -35 78z" />
<glyph unicode="u" d="M92 157q0 48 24 164l92 439h129l-101 -486q-13 -61 -13 -94q0 -43 26 -67t77 -24q54 0 106 26.5t89.5 71.5t61.5 107q16 39 36 138l69 328h130l-159 -760h-120l29 137q-137 -154 -280 -154q-88 0 -142 50.5t-54 123.5z" />
<glyph unicode="v" horiz-adv-x="733" d="M116 760h126l65 -418q11 -69 27 -225q37 81 95 186l254 457h137l-436 -760h-143z" />
<glyph unicode="w" horiz-adv-x="1059" d="M114 760h124l35 -341l13 -192q2 -22 5 -87q21 73 36 112t48 112l181 396h141l25 -380q6 -86 8 -231q35 96 116 266l164 345h129l-371 -760h-135l-29 446q-3 42 -4 162q-29 -77 -69 -166l-202 -442h-136z" />
<glyph unicode="x" horiz-adv-x="733" d="M-2 0l331 386l-190 374h143l65 -135q35 -76 64 -145l219 280h158l-319 -384l192 -376h-143l-76 155q-25 49 -55 122l-227 -277h-162z" />
<glyph unicode="y" horiz-adv-x="733" d="M0 -294l8 122q40 -11 78 -11q39 0 64 18q31 23 68 88l42 75l-127 762h128l57 -384q17 -114 29 -228l340 612h136l-485 -861q-70 -126 -124.5 -167t-125.5 -41q-45 0 -88 15z" />
<glyph unicode="z" horiz-adv-x="733" d="M29 0l20 100l409 461q44 48 98 101q-93 -10 -133 -10h-283l23 108h588l-17 -81l-413 -463q-35 -40 -104 -109q108 7 148 7h299l-23 -114h-612z" />
<glyph unicode="{" horiz-adv-x="490" d="M77 321l25 117q55 2 95.5 29.5t66.5 85.5q20 43 46.5 162.5t40.5 162.5q19 59 46 96t57.5 57t75.5 31q25 6 83 6h40l-24 -113h-23q-60 0 -87 -14.5t-41.5 -46.5t-37.5 -139q-30 -141 -56 -204t-65 -102t-111 -70q52 -23 76.5 -63.5t24.5 -107.5q0 -55 -32 -204 q-23 -104 -23 -131q0 -28 11 -43q8 -13 27.5 -19.5t86.5 -6.5l-25 -113h-39q-67 0 -94 10q-42 14 -65.5 48t-23.5 90q0 49 33 205q25 118 25 159q0 58 -29 87.5t-84 30.5z" />
<glyph unicode="|" horiz-adv-x="381" d="M135 -309v1377h112v-1377h-112z" />
<glyph unicode="}" horiz-adv-x="490" d="M-123 -309l24 113h22q61 0 88 15t43 51q13 26 36 134q29 136 50 188q28 73 71.5 117.5t109.5 69.5q-55 30 -77.5 67.5t-22.5 105.5q0 55 32 203q23 104 23 132q0 37 -20 52.5t-83 15.5h-22l24 113h40q67 0 94 -10q43 -14 66 -47.5t23 -90.5q0 -47 -24 -159 q-34 -165 -34 -205q0 -58 28.5 -87t84.5 -31l-25 -117q-54 -1 -95.5 -29t-64 -78t-49 -170t-39.5 -160q-20 -61 -47 -98t-58 -57.5t-76 -31.5q-24 -6 -82 -6h-40z" />
<glyph unicode="~" horiz-adv-x="856" d="M117 399v147q76 86 199 86q43 0 90.5 -13t134.5 -50q50 -21 74.5 -27t49.5 -6q47 0 96.5 27.5t88.5 70.5v-152q-46 -43 -93 -62.5t-105 -19.5q-43 0 -82 10t-124 48t-142 38q-46 0 -86 -19.5t-101 -77.5z" />
<glyph unicode="&#xa1;" horiz-adv-x="488" d="M84 -289l49 232l152 552h81l-80 -569l-44 -215h-158zM271 614l30 146h147l-31 -146h-146z" />
<glyph unicode="&#xa2;" d="M110 287q0 125 49.5 245t142 183t209.5 63q22 0 44 -3l120 289l76 -32l-115 -279q69 -29 105 -86.5t36 -140.5l-128 -9q0 46 -14 75.5t-44 51.5l-231 -558q17 -3 30 -3q63 0 121 48t90 146l130 -14q-49 -142 -138.5 -211t-204.5 -69q-34 0 -67 7l-117 -281l-77 33 l115 277q-132 78 -132 268zM241 280q0 -101 46 -151l225 542h-12q-80 0 -137 -50t-89.5 -151t-32.5 -190z" />
<glyph unicode="&#xa3;" d="M46 109q79 51 137 117q45 50 65 107.5t20 100.5q0 9 -3 32h-158l22 108h124q-13 97 -13 163q0 139 99 235t248 96q118 0 203 -69.5t101 -209.5l-118 -12q-11 92 -61.5 139.5t-125.5 47.5q-89 0 -151.5 -67t-62.5 -183q0 -51 15 -140h207l-23 -108h-179v-31 q0 -74 -34 -147t-117 -136q38 5 55 5q58 0 91.5 -5.5t92 -25t97.5 -19.5q81 0 158 45l39 -117q-109 -53 -191 -53q-31 0 -62 7q-23 6 -74 27t-86.5 29t-75.5 8q-61 0 -110 -15t-114 -56z" />
<glyph unicode="&#xa4;" d="M117 253l100 98q-51 79 -51 169q0 89 51 168l-100 97l83 86l99 -100q76 52 170 52t170 -52l99 100l83 -86l-99 -97q51 -79 51 -168q0 -90 -51 -169l99 -98l-83 -85l-99 101q-76 -53 -170 -53t-170 53l-99 -101zM283 520q0 -78 54.5 -132t130.5 -54q77 0 131.5 54 t54.5 132q0 76 -54 130.5t-132 54.5q-76 0 -130.5 -54.5t-54.5 -130.5z" />
<glyph unicode="&#xa5;" d="M54 234l20 99h293l23 105h-293l20 99h246l-195 513h130l83 -226q59 -162 64 -176q20 -55 30 -95q30 66 93 153l250 344h160l-387 -513h240l-21 -99h-291l-22 -105h291l-21 -99h-291l-49 -234h-129l49 234h-293z" />
<glyph unicode="&#xa6;" horiz-adv-x="381" d="M135 258h112v-567h-112v567zM135 502v566h112v-566h-112z" />
<glyph unicode="&#xa7;" d="M44 -64l119 30q17 -86 71.5 -132t127.5 -46q70 0 115.5 41.5t45.5 94.5q0 22 -9 44t-28 44q-26 32 -209 178q-72 58 -97 86q-38 41 -54 77.5t-16 81.5q0 78 46 137.5t158 114.5q-57 69 -57 145q0 100 73.5 168t205.5 68q124 0 191 -57.5t87 -185.5l-130 -15 q0 73 -41.5 113.5t-114.5 40.5q-65 0 -107 -38t-42 -90q0 -37 28 -81.5t133 -129.5q153 -124 194 -175.5t41 -117.5q0 -68 -49 -132.5t-150 -112.5q35 -39 53 -80t18 -83q0 -93 -77 -163t-209 -70q-125 0 -208.5 65.5t-108.5 179.5zM227 450q0 -30 15 -57q22 -38 105 -104 l164 -134q78 36 110.5 79.5t32.5 81.5q0 31 -15 56.5t-103 97.5q-121 100 -170 155q-139 -79 -139 -175z" />
<glyph unicode="&#xa8;" horiz-adv-x="488" d="M170 879l30 146h136l-31 -146h-135zM434 879l31 146h134l-30 -146h-135z" />
<glyph unicode="&#xa9;" horiz-adv-x="1080" d="M59 527q0 141 73 271t202.5 200t265.5 70t265.5 -70t202 -200t72.5 -271q0 -140 -71.5 -268.5t-200 -200t-268.5 -71.5t-268.5 71.5t-200.5 200t-72 268.5zM149 527q0 -117 60 -224t167 -166.5t224 -59.5t224.5 59.5t166.5 166.5t59 224t-60.5 225.5t-168.5 167 t-221 58.5q-114 0 -221.5 -58.5t-168.5 -167t-61 -225.5zM317 526q0 94 36 164t102 105.5t151 35.5q96 0 159 -45.5t86 -123.5l-86 -21q-21 53 -63 81t-98 28q-83 0 -136 -58.5t-53 -168.5q0 -109 50.5 -165.5t130.5 -56.5q64 0 113 37.5t64 101.5l88 -26q-21 -90 -91 -143 t-169 -53q-126 0 -205 81.5t-79 226.5z" />
<glyph unicode="&#xaa;" horiz-adv-x="543" d="M120 674q0 46 24.5 85.5t73.5 59t146 25.5q75 4 124 16q11 31 11 46q0 31 -26 53t-72 22q-42 0 -77.5 -21.5t-54.5 -64.5l-101 16q34 75 90 116t144 41q98 0 148 -41.5t50 -101.5q0 -55 -39 -198q-20 -75 -20 -115q0 -42 14 -70h-99q-5 16 -9 47q-27 -24 -74 -43t-92 -19 q-75 0 -118 42t-43 105zM222 682q0 -29 22 -49t56 -20q59 0 104.5 40.5t64.5 124.5q-39 -11 -117.5 -18t-103.5 -28q-26 -21 -26 -50z" />
<glyph unicode="&#xab;" d="M115 393l287 309h103l-254 -325l113 -325h-97zM399 395l278 307h111l-255 -325l112 -325h-104z" />
<glyph unicode="&#xac;" horiz-adv-x="856" d="M132 617v120h693v-433h-122v313h-571z" />
<glyph unicode="&#xad;" horiz-adv-x="488" d="M68 315l27 130h395l-26 -130h-396z" />
<glyph unicode="&#xae;" horiz-adv-x="1080" d="M59 527q0 141 73 271t202.5 200t265.5 70t265.5 -70t202 -200t72.5 -271q0 -140 -71.5 -268.5t-200 -200t-268.5 -71.5t-268.5 71.5t-200.5 200t-72 268.5zM149 527q0 -117 60 -224t167 -166.5t224 -59.5t224.5 59.5t166.5 166.5t59 224t-60.5 225.5t-168.5 167 t-221 58.5q-114 0 -221.5 -58.5t-168.5 -167t-61 -225.5zM363 228v582h200q102 0 148 -16t73 -56.5t27 -85.5q0 -63 -45.5 -110.5t-120.5 -53.5q31 -13 50 -30q35 -35 85 -116l71 -114h-114l-52 92q-61 108 -98 135q-26 20 -75 20h-55v-247h-94zM457 556h114q81 0 111 24 t30 64q0 26 -14.5 46.5t-40 30.5t-94.5 10h-106v-175z" />
<glyph unicode="&#xaf;" horiz-adv-x="810" d="M130 1121v93h854v-93h-854z" />
<glyph unicode="&#xb0;" horiz-adv-x="586" d="M195 869q0 83 58.5 141t140.5 58q83 0 141 -58t58 -141q0 -82 -58.5 -140.5t-140.5 -58.5t-140.5 58t-58.5 141zM274 869q0 -50 35 -85.5t86 -35.5q49 0 84.5 35.5t35.5 85.5t-35.5 85.5t-84.5 35.5q-51 0 -86 -35.5t-35 -85.5z" />
<glyph unicode="&#xb1;" horiz-adv-x="805" d="M89 0v120h693v-120h-693zM89 475v119h285v286h122v-286h286v-119h-286v-289h-122v289h-285z" />
<glyph unicode="&#xb2;" horiz-adv-x="488" d="M109 525q22 74 76.5 136t179.5 133q72 41 90 59q25 26 25 56q0 28 -22.5 47.5t-66.5 19.5q-52 0 -79.5 -20t-41.5 -62l-110 11q22 77 78.5 117.5t151.5 40.5q98 0 148 -43.5t50 -107.5q0 -58 -43 -106q-32 -36 -139 -100q-64 -38 -88 -56.5t-39 -38.5h272l-18 -86h-424z " />
<glyph unicode="&#xb3;" horiz-adv-x="488" d="M121 666l102 11q17 -40 46.5 -59.5t70.5 -19.5q52 0 80.5 25.5t28.5 63.5q0 33 -23.5 53t-76.5 20h-30l17 77l23 -1q47 0 83 21t36 60q0 29 -23 48.5t-65 19.5q-41 0 -67 -17.5t-42 -55.5l-105 14q19 61 72.5 99t140.5 38q99 0 148 -41.5t49 -100.5q0 -44 -28.5 -77 t-91.5 -49q53 -21 74 -50.5t21 -69.5q0 -63 -58 -113t-159 -50q-88 0 -146.5 43t-76.5 111z" />
<glyph unicode="&#xb4;" horiz-adv-x="488" d="M248 853l134 197h164l-191 -197h-107z" />
<glyph unicode="&#xb5;" horiz-adv-x="845" d="M9 -294l222 1054h128l-75 -357q-28 -130 -28 -182q0 -58 38 -94t103 -36q88 0 150 64q46 48 77 196l86 409h128l-161 -760h-116l13 60q-97 -78 -190 -78q-53 0 -93 21.5t-78 68.5l-77 -366h-127z" />
<glyph unicode="&#xb6;" horiz-adv-x="788" d="M102 748q0 138 86 220t252 82h454v-124h-104v-1217h-121v1217h-160v-1217h-118v748q-134 7 -211.5 87t-77.5 204z" />
<glyph unicode="&#xb7;" horiz-adv-x="407" d="M132 443v147h147v-147h-147z" />
<glyph unicode="&#xb8;" horiz-adv-x="488" d="M55 -296l16 80q44 -2 104 -2q74 0 98 16t24 35q0 23 -21 38q-30 22 -96 22l30 116h100l-17 -65q63 -8 96 -43t33 -79q0 -51 -44 -82q-63 -44 -201 -44q-70 0 -122 8z" />
<glyph unicode="&#xb9;" horiz-adv-x="488" d="M200 833l19 91q55 15 120 54t101 85h80l-113 -538h-107l79 381q-73 -52 -179 -73z" />
<glyph unicode="&#xba;" horiz-adv-x="536" d="M102 765q0 56 29 128.5t94.5 123.5t153.5 51q100 0 162.5 -63t62.5 -161q0 -107 -71 -211.5t-199 -104.5q-73 0 -128 29.5t-79.5 78.5t-24.5 129zM208 768q0 -67 23 -99q34 -47 92 -47q39 0 80 26t68 82.5t27 114.5q0 57 -34 93t-85 36q-43 0 -84.5 -30.5t-64 -84 t-22.5 -91.5z" />
<glyph unicode="&#xbb;" d="M59 52l263 321l-106 329h103l138 -346l-281 -304h-117zM346 52l256 315l-107 335h98l147 -348l-291 -302h-103z" />
<glyph unicode="&#xbc;" horiz-adv-x="1223" d="M122 -44l1000 1112h125l-1009 -1112h-116zM200 833l19 91q55 15 120 54t101 85h80l-113 -538h-107l79 381q-73 -52 -179 -73zM720 84l18 86l367 343h84l-71 -347h71l-18 -82h-72l-22 -109h-103l23 109h-277zM857 166h158l46 190z" />
<glyph unicode="&#xbd;" horiz-adv-x="1223" d="M88 -44l1000 1112h125l-1009 -1112h-116zM200 833l19 91q55 15 120 54t101 85h80l-113 -538h-107l79 381q-73 -52 -179 -73zM730 -25q23 74 77 136t180 133q72 41 88 59q26 26 26 56q0 28 -23 47.5t-66 19.5q-51 0 -79.5 -20t-41.5 -62l-109 11q21 77 77.5 117.5 t151.5 40.5q99 0 148.5 -43.5t49.5 -107.5q0 -58 -43 -106q-32 -35 -139 -100q-63 -38 -87 -56.5t-39 -37.5h271l-19 -87h-423z" />
<glyph unicode="&#xbe;" horiz-adv-x="1223" d="M121 666l102 11q17 -40 46.5 -59.5t70.5 -19.5q52 0 80.5 25.5t28.5 63.5q0 33 -23.5 53t-76.5 20h-30l17 77l23 -1q47 0 83 21t36 60q0 29 -23 48.5t-65 19.5q-41 0 -67 -17.5t-42 -55.5l-105 14q19 61 72.5 99t140.5 38q99 0 148 -41.5t49 -100.5q0 -44 -28.5 -77 t-91.5 -49q53 -21 74 -50.5t21 -69.5q0 -63 -58 -113t-159 -50q-88 0 -146.5 43t-76.5 111zM144 -44l999 1112h126l-1009 -1112h-116zM720 84l18 86l367 343h84l-71 -347h71l-18 -82h-72l-22 -109h-103l23 109h-277zM857 166h158l46 190z" />
<glyph unicode="&#xbf;" horiz-adv-x="896" d="M123 -50q0 79 53 152q40 54 176 164q95 75 123 118t41 114h122q-7 -66 -29.5 -116.5t-69.5 -102.5q-26 -31 -127 -113t-131 -132.5t-30 -92.5q0 -58 48 -101.5t122 -43.5q82 0 136 51.5t72 171.5l130 -21q-31 -153 -119.5 -229t-214.5 -76q-86 0 -157.5 35t-108 95.5 t-36.5 126.5zM524 614l31 146h147l-31 -146h-147z" />
<glyph unicode="&#xc0;" horiz-adv-x="978" d="M-29 0l595 1050h165l173 -1050h-136l-51 302h-424l-168 -302h-154zM353 410h347l-41 264q-23 157 -29 261q-36 -90 -104 -214zM569 1312h158l83 -197h-101z" />
<glyph unicode="&#xc1;" horiz-adv-x="978" d="M-29 0l595 1050h165l173 -1050h-136l-51 302h-424l-168 -302h-154zM353 410h347l-41 264q-23 157 -29 261q-36 -90 -104 -214zM563 1114l134 197h164l-191 -197h-107z" />
<glyph unicode="&#xc2;" horiz-adv-x="978" d="M-29 0l595 1050h165l173 -1050h-136l-51 302h-424l-168 -302h-154zM353 410h347l-41 264q-23 157 -29 261q-36 -90 -104 -214zM426 1114l190 197h143l89 -197h-114l-57 127l-118 -127h-133z" />
<glyph unicode="&#xc3;" horiz-adv-x="978" d="M-29 0l595 1050h165l173 -1050h-136l-51 302h-424l-168 -302h-154zM353 410h347l-41 264q-23 157 -29 261q-36 -90 -104 -214zM414 1112q24 95 59 127.5t87 32.5q23 0 46 -5.5t78.5 -30.5t76.5 -25q16 0 29 12t22 45h86q-7 -74 -47.5 -115.5t-93.5 -41.5q-28 0 -72 19 q-99 43 -122 43t-38 -15t-21 -46h-90z" />
<glyph unicode="&#xc4;" horiz-adv-x="978" d="M-29 0l595 1050h165l173 -1050h-136l-51 302h-424l-168 -302h-154zM353 410h347l-41 264q-23 157 -29 261q-36 -90 -104 -214zM442 1115l30 146h136l-31 -146h-135zM706 1115l31 146h134l-30 -146h-135z" />
<glyph unicode="&#xc5;" horiz-adv-x="978" d="M-29 0l595 1050h165l173 -1050h-136l-51 302h-424l-168 -302h-154zM353 410h347l-41 264q-23 157 -29 261q-36 -90 -104 -214zM538 1135q0 55 38 92.5t92 37.5q55 0 92.5 -38t37.5 -92t-38 -92t-92 -38t-92 38t-38 92zM592 1135q0 -32 22.5 -54.5t53.5 -22.5 q32 0 54.5 22.5t22.5 54.5t-22.5 54.5t-54.5 22.5q-31 0 -53.5 -22.5t-22.5 -54.5z" />
<glyph unicode="&#xc6;" horiz-adv-x="1466" d="M-59 0l645 1050h944l-25 -120h-541l-68 -326h547l-25 -119h-547l-77 -366h605l-25 -119h-753l63 299h-405l-179 -299h-159zM352 418h357l107 512h-151z" />
<glyph unicode="&#xc7;" horiz-adv-x="1059" d="M133 433q0 284 171 469q151 166 377 166q167 0 270.5 -89.5t119.5 -241.5l-131 -12q-21 114 -85.5 170.5t-167.5 56.5q-192 0 -311 -172q-103 -147 -103 -350q0 -161 79.5 -246.5t206.5 -85.5q109 0 197 71t128 200l139 -19q-66 -182 -192 -275t-283 -93q-191 0 -303 117 t-112 334zM270 -299l16 80q44 -2 104 -2q74 0 98 16t24 35q0 23 -21 38q-30 22 -96 22l30 116h100l-17 -65q63 -8 96 -43t33 -79q0 -51 -44 -82q-63 -44 -201 -44q-70 0 -122 8z" />
<glyph unicode="&#xc8;" horiz-adv-x="978" d="M66 0l220 1050h757l-25 -120h-617l-69 -326h602l-25 -120h-602l-76 -365h661l-25 -119h-801zM596 1312h158l83 -197h-101z" />
<glyph unicode="&#xc9;" horiz-adv-x="978" d="M66 0l220 1050h757l-25 -120h-617l-69 -326h602l-25 -120h-602l-76 -365h661l-25 -119h-801zM534 1114l134 197h164l-191 -197h-107z" />
<glyph unicode="&#xca;" horiz-adv-x="978" d="M66 0l220 1050h757l-25 -120h-617l-69 -326h602l-25 -120h-602l-76 -365h661l-25 -119h-801zM439 1114l190 197h143l89 -197h-114l-57 127l-118 -127h-133z" />
<glyph unicode="&#xcb;" horiz-adv-x="978" d="M66 0l220 1050h757l-25 -120h-617l-69 -326h602l-25 -120h-602l-76 -365h661l-25 -119h-801zM470 1112l30 146h136l-31 -146h-135zM734 1112l31 146h134l-30 -146h-135z" />
<glyph unicode="&#xcc;" horiz-adv-x="407" d="M84 0l220 1050h139l-219 -1050h-140zM258 1312h158l83 -197h-101z" />
<glyph unicode="&#xcd;" horiz-adv-x="407" d="M84 0l220 1050h139l-219 -1050h-140zM273 1114l134 197h164l-191 -197h-107z" />
<glyph unicode="&#xce;" horiz-adv-x="407" d="M84 0l220 1050h139l-219 -1050h-140zM176 1114l190 197h143l89 -197h-114l-57 127l-118 -127h-133z" />
<glyph unicode="&#xcf;" horiz-adv-x="407" d="M84 0l220 1050h139l-219 -1050h-140zM177 1115l30 146h136l-31 -146h-135zM441 1115l31 146h134l-30 -146h-135z" />
<glyph unicode="&#xd0;" horiz-adv-x="1059" d="M65 477l20 96h114l101 477h313q99 0 139 -8q63 -11 119.5 -42t100 -88t64 -132t20.5 -159q0 -127 -38.5 -231t-100 -183.5t-129.5 -124t-160 -66.5q-70 -16 -173 -16h-378l101 477h-113zM243 119h165q113 0 200 21q54 13 93 38q51 32 93 85q54 70 86.5 160t32.5 204 q0 128 -44.5 196t-112.5 91q-51 16 -158 16h-183l-76 -357h289l-20 -96h-289z" />
<glyph unicode="&#xd1;" horiz-adv-x="1059" d="M72 0l219 1050h136l177 -394q81 -181 128 -304q28 -71 63 -193q20 132 49 273l129 618h137l-219 -1050h-139l-261 606q-69 161 -108 283q-11 -102 -41 -251l-134 -638h-136zM473 1112q24 95 59 127.5t87 32.5q23 0 46 -5.5t78.5 -30.5t76.5 -25q16 0 29 12t22 45h86 q-7 -74 -47.5 -115.5t-93.5 -41.5q-28 0 -72 19q-99 43 -122 43t-38 -15t-21 -46h-90z" />
<glyph unicode="&#xd2;" horiz-adv-x="1141" d="M134 440q0 280 162 454t394 174q196 0 319.5 -128t123.5 -343q0 -153 -63 -284q-46 -98 -117 -169.5t-152 -109.5q-107 -52 -227 -52q-126 0 -229.5 60t-157 168t-53.5 230zM272 432q0 -92 38.5 -169.5t114 -121t159.5 -43.5q81 0 154 38.5t131 106.5t91 168t33 197 q0 157 -87.5 250t-216.5 93q-165 0 -291 -141t-126 -378zM608 1312h158l83 -197h-101z" />
<glyph unicode="&#xd3;" horiz-adv-x="1141" d="M134 440q0 280 162 454t394 174q196 0 319.5 -128t123.5 -343q0 -153 -63 -284q-46 -98 -117 -169.5t-152 -109.5q-107 -52 -227 -52q-126 0 -229.5 60t-157 168t-53.5 230zM272 432q0 -92 38.5 -169.5t114 -121t159.5 -43.5q81 0 154 38.5t131 106.5t91 168t33 197 q0 157 -87.5 250t-216.5 93q-165 0 -291 -141t-126 -378zM588 1114l134 197h164l-191 -197h-107z" />
<glyph unicode="&#xd4;" horiz-adv-x="1141" d="M134 440q0 280 162 454t394 174q196 0 319.5 -128t123.5 -343q0 -153 -63 -284q-46 -98 -117 -169.5t-152 -109.5q-107 -52 -227 -52q-126 0 -229.5 60t-157 168t-53.5 230zM272 432q0 -92 38.5 -169.5t114 -121t159.5 -43.5q81 0 154 38.5t131 106.5t91 168t33 197 q0 157 -87.5 250t-216.5 93q-165 0 -291 -141t-126 -378zM476 1114l190 197h143l89 -197h-114l-57 127l-118 -127h-133z" />
<glyph unicode="&#xd5;" horiz-adv-x="1141" d="M134 440q0 280 162 454t394 174q196 0 319.5 -128t123.5 -343q0 -153 -63 -284q-46 -98 -117 -169.5t-152 -109.5q-107 -52 -227 -52q-126 0 -229.5 60t-157 168t-53.5 230zM272 432q0 -92 38.5 -169.5t114 -121t159.5 -43.5q81 0 154 38.5t131 106.5t91 168t33 197 q0 157 -87.5 250t-216.5 93q-165 0 -291 -141t-126 -378zM457 1112q24 95 59 127.5t87 32.5q23 0 46 -5.5t78.5 -30.5t76.5 -25q16 0 29 12t22 45h86q-7 -74 -47.5 -115.5t-93.5 -41.5q-28 0 -72 19q-99 43 -122 43t-38 -15t-21 -46h-90z" />
<glyph unicode="&#xd6;" horiz-adv-x="1141" d="M134 440q0 280 162 454t394 174q196 0 319.5 -128t123.5 -343q0 -153 -63 -284q-46 -98 -117 -169.5t-152 -109.5q-107 -52 -227 -52q-126 0 -229.5 60t-157 168t-53.5 230zM272 432q0 -92 38.5 -169.5t114 -121t159.5 -43.5q81 0 154 38.5t131 106.5t91 168t33 197 q0 157 -87.5 250t-216.5 93q-165 0 -291 -141t-126 -378zM490 1115l30 146h136l-31 -146h-135zM754 1115l31 146h134l-30 -146h-135z" />
<glyph unicode="&#xd7;" horiz-adv-x="856" d="M187 293l225 225l-224 225l87 88l225 -225l224 224l86 -87l-224 -224l225 -225l-87 -87l-225 225l-225 -226z" />
<glyph unicode="&#xd8;" horiz-adv-x="1141" d="M125 -17l119 142q-110 131 -110 333q0 137 52 262q43 103 113 177.5t152 115.5q110 55 236 55q161 0 273 -84l115 137l63 -56l-116 -140q111 -126 111 -331q0 -149 -61 -279q-47 -99 -118.5 -170.5t-152.5 -110.5q-107 -52 -227 -52q-152 0 -266 84l-115 -140zM271 450 q0 -133 60 -221l545 655q-81 67 -186 67t-203 -62.5t-157 -182t-59 -256.5zM391 165q87 -67 193 -67q81 0 154 38.5t131 106.5t91 168t33 197q0 121 -58 212z" />
<glyph unicode="&#xd9;" horiz-adv-x="1059" d="M142 287q0 55 29 190l120 573h140l-135 -645q-16 -81 -16 -119q0 -85 66.5 -136.5t167.5 -51.5q80 0 149 37t109.5 108.5t72.5 228.5l121 578h140l-128 -616q-33 -158 -86.5 -250t-149 -147.5t-221.5 -55.5q-119 0 -206 39.5t-130 109t-43 157.5zM582 1312h158l83 -197 h-101z" />
<glyph unicode="&#xda;" horiz-adv-x="1059" d="M142 287q0 55 29 190l120 573h140l-135 -645q-16 -81 -16 -119q0 -85 66.5 -136.5t167.5 -51.5q80 0 149 37t109.5 108.5t72.5 228.5l121 578h140l-128 -616q-33 -158 -86.5 -250t-149 -147.5t-221.5 -55.5q-119 0 -206 39.5t-130 109t-43 157.5zM574 1114l134 197h164 l-191 -197h-107z" />
<glyph unicode="&#xdb;" horiz-adv-x="1059" d="M142 287q0 55 29 190l120 573h140l-135 -645q-16 -81 -16 -119q0 -85 66.5 -136.5t167.5 -51.5q80 0 149 37t109.5 108.5t72.5 228.5l121 578h140l-128 -616q-33 -158 -86.5 -250t-149 -147.5t-221.5 -55.5q-119 0 -206 39.5t-130 109t-43 157.5zM483 1114l190 197h143 l89 -197h-114l-57 127l-118 -127h-133z" />
<glyph unicode="&#xdc;" horiz-adv-x="1059" d="M142 287q0 55 29 190l120 573h140l-135 -645q-16 -81 -16 -119q0 -85 66.5 -136.5t167.5 -51.5q80 0 149 37t109.5 108.5t72.5 228.5l121 578h140l-128 -616q-33 -158 -86.5 -250t-149 -147.5t-221.5 -55.5q-119 0 -206 39.5t-130 109t-43 157.5zM504 1115l30 146h136 l-31 -146h-135zM768 1115l31 146h134l-30 -146h-135z" />
<glyph unicode="&#xdd;" horiz-adv-x="978" d="M171 1050h150l155 -307q51 -100 99 -215q53 98 145 213l246 309h167l-501 -655l-82 -395h-140l84 406zM542 1114l134 197h164l-191 -197h-107z" />
<glyph unicode="&#xde;" horiz-adv-x="978" d="M63 0l223 1050l141 -1l-45 -212h294q114 0 171 -26t94 -89.5t37 -142.5q0 -64 -26.5 -132t-67 -111.5t-82.5 -65.5t-89 -33q-101 -24 -203 -24h-262l-45 -213h-140zM274 332h229q135 0 198 29t101 88.5t38 126.5q0 52 -20.5 84t-56.5 47.5t-140 15.5h-266z" />
<glyph unicode="&#xdf;" horiz-adv-x="896" d="M53 0l155 740q25 123 67 185t123 102.5t172 40.5q108 0 172 -54t64 -115q0 -36 -19 -78.5t-75.5 -114.5t-70 -99.5t-13.5 -50.5q0 -20 9.5 -38t69.5 -80q88 -89 106.5 -126t18.5 -80q0 -59 -36 -118.5t-105 -95.5t-143 -36q-151 0 -253 168l109 59q36 -70 71.5 -95.5 t70.5 -25.5q60 0 107 47t47 101q0 23 -12 44.5t-99 106.5q-63 62 -79 93t-16 61q0 34 22 79t91.5 131.5t69.5 134.5q0 32 -30.5 57t-80.5 25q-33 0 -69 -12.5t-63 -32.5t-46 -44.5t-32 -62.5q-7 -18 -22 -91l-151 -725h-130z" />
<glyph unicode="&#xe0;" d="M64 203q0 64 29 113t77 79t118 42q44 9 166 14t175 26q15 53 15 88q0 45 -33 71q-45 36 -132 36q-82 0 -133.5 -36.5t-75.5 -102.5l-131 11q40 113 127 173.5t219 60.5q142 0 224 -68q63 -50 63 -130q0 -61 -18 -141l-42 -189q-20 -90 -20 -147q0 -36 15 -103h-131 q-10 37 -15 95q-67 -58 -129.5 -85t-132.5 -27q-106 0 -170.5 62t-64.5 158zM193 208q0 -55 38 -90t107 -35q64 0 123.5 34t94 95t53.5 173q-27 -11 -58 -16.5t-104 -11.5q-113 -10 -159.5 -25.5t-70.5 -49.5t-24 -74zM408 1050h158l83 -197h-101z" />
<glyph unicode="&#xe1;" d="M64 203q0 64 29 113t77 79t118 42q44 9 166 14t175 26q15 53 15 88q0 45 -33 71q-45 36 -132 36q-82 0 -133.5 -36.5t-75.5 -102.5l-131 11q40 113 127 173.5t219 60.5q142 0 224 -68q63 -50 63 -130q0 -61 -18 -141l-42 -189q-20 -90 -20 -147q0 -36 15 -103h-131 q-10 37 -15 95q-67 -58 -129.5 -85t-132.5 -27q-106 0 -170.5 62t-64.5 158zM193 208q0 -55 38 -90t107 -35q64 0 123.5 34t94 95t53.5 173q-27 -11 -58 -16.5t-104 -11.5q-113 -10 -159.5 -25.5t-70.5 -49.5t-24 -74zM398 853l134 197h164l-191 -197h-107z" />
<glyph unicode="&#xe2;" d="M64 203q0 64 29 113t77 79t118 42q44 9 166 14t175 26q15 53 15 88q0 45 -33 71q-45 36 -132 36q-82 0 -133.5 -36.5t-75.5 -102.5l-131 11q40 113 127 173.5t219 60.5q142 0 224 -68q63 -50 63 -130q0 -61 -18 -141l-42 -189q-20 -90 -20 -147q0 -36 15 -103h-131 q-10 37 -15 95q-67 -58 -129.5 -85t-132.5 -27q-106 0 -170.5 62t-64.5 158zM193 208q0 -55 38 -90t107 -35q64 0 123.5 34t94 95t53.5 173q-27 -11 -58 -16.5t-104 -11.5q-113 -10 -159.5 -25.5t-70.5 -49.5t-24 -74zM310 853l190 197h143l89 -197h-114l-57 127l-118 -127 h-133z" />
<glyph unicode="&#xe3;" d="M64 203q0 64 29 113t77 79t118 42q44 9 166 14t175 26q15 53 15 88q0 45 -33 71q-45 36 -132 36q-82 0 -133.5 -36.5t-75.5 -102.5l-131 11q40 113 127 173.5t219 60.5q142 0 224 -68q63 -50 63 -130q0 -61 -18 -141l-42 -189q-20 -90 -20 -147q0 -36 15 -103h-131 q-10 37 -15 95q-67 -58 -129.5 -85t-132.5 -27q-106 0 -170.5 62t-64.5 158zM193 208q0 -55 38 -90t107 -35q64 0 123.5 34t94 95t53.5 173q-27 -11 -58 -16.5t-104 -11.5q-113 -10 -159.5 -25.5t-70.5 -49.5t-24 -74zM308 876q24 95 59 127.5t87 32.5q23 0 46 -5.5 t78.5 -30.5t76.5 -25q16 0 29 12t22 45h86q-7 -74 -47.5 -115.5t-93.5 -41.5q-28 0 -72 19q-99 43 -122 43t-38 -15t-21 -46h-90z" />
<glyph unicode="&#xe4;" d="M64 203q0 64 29 113t77 79t118 42q44 9 166 14t175 26q15 53 15 88q0 45 -33 71q-45 36 -132 36q-82 0 -133.5 -36.5t-75.5 -102.5l-131 11q40 113 127 173.5t219 60.5q142 0 224 -68q63 -50 63 -130q0 -61 -18 -141l-42 -189q-20 -90 -20 -147q0 -36 15 -103h-131 q-10 37 -15 95q-67 -58 -129.5 -85t-132.5 -27q-106 0 -170.5 62t-64.5 158zM193 208q0 -55 38 -90t107 -35q64 0 123.5 34t94 95t53.5 173q-27 -11 -58 -16.5t-104 -11.5q-113 -10 -159.5 -25.5t-70.5 -49.5t-24 -74zM320 879l30 146h136l-31 -146h-135zM584 879l31 146 h134l-30 -146h-135z" />
<glyph unicode="&#xe5;" d="M64 203q0 64 29 113t77 79t118 42q44 9 166 14t175 26q15 53 15 88q0 45 -33 71q-45 36 -132 36q-82 0 -133.5 -36.5t-75.5 -102.5l-131 11q40 113 127 173.5t219 60.5q142 0 224 -68q63 -50 63 -130q0 -61 -18 -141l-42 -189q-20 -90 -20 -147q0 -36 15 -103h-131 q-10 37 -15 95q-67 -58 -129.5 -85t-132.5 -27q-106 0 -170.5 62t-64.5 158zM193 208q0 -55 38 -90t107 -35q64 0 123.5 34t94 95t53.5 173q-27 -11 -58 -16.5t-104 -11.5q-113 -10 -159.5 -25.5t-70.5 -49.5t-24 -74zM390 945q0 55 38 92.5t92 37.5q55 0 92.5 -38t37.5 -92 t-38 -92t-92 -38t-92 38t-38 92zM444 945q0 -32 22.5 -54.5t53.5 -22.5q32 0 54.5 22.5t22.5 54.5t-22.5 54.5t-54.5 22.5q-31 0 -53.5 -22.5t-22.5 -54.5z" />
<glyph unicode="&#xe6;" horiz-adv-x="1304" d="M62 204q0 62 27.5 111.5t69 75t109.5 39.5q43 8 161.5 18t169.5 25q17 52 17 88q0 53 -34.5 84.5t-101.5 31.5q-82 0 -134.5 -35t-80.5 -108l-128 11q37 111 124.5 172t221.5 61q77 0 136.5 -26t100.5 -78q100 104 249 104q89 0 158 -40t105.5 -115t36.5 -163 q0 -43 -11 -113h-553q-3 -21 -3 -43q0 -107 47 -161t120 -54q65 0 124.5 41t101.5 127l132 -12q-63 -130 -152 -196t-208 -66q-83 0 -155 40.5t-118 128.5q-57 -88 -134 -129t-157 -41q-115 0 -178 61t-63 161zM195 211q0 -57 36 -92t103 -35q86 0 144 60q76 79 101 232 q-76 -18 -185 -28q-81 -7 -110 -17q-44 -15 -66.5 -45t-22.5 -75zM730 447h417q1 23 1 31q0 57 -21 103.5t-62.5 71t-88.5 24.5q-74 0 -145.5 -61t-100.5 -169z" />
<glyph unicode="&#xe7;" horiz-adv-x="733" d="M82 287q0 125 49.5 245t141.5 183t210 63q123 0 194.5 -69.5t71.5 -182.5l-128 -9q0 72 -41.5 113t-108.5 41q-78 0 -135 -49.5t-90 -150t-33 -193.5q0 -98 43 -146.5t106 -48.5t121 48t91 146l129 -14q-49 -142 -138.5 -211t-204.5 -69q-124 0 -201 80t-77 224z M127 -283l16 80q44 -2 104 -2q74 0 98 16t24 35q0 23 -21 38q-30 22 -96 22l30 116h100l-17 -65q63 -8 96 -43t33 -79q0 -51 -44 -82q-63 -44 -201 -44q-70 0 -122 8z" />
<glyph unicode="&#xe8;" d="M76 305q0 125 57.5 242t149 174t198.5 57q136 0 217.5 -84.5t81.5 -230.5q0 -56 -10 -115h-560q-3 -22 -3 -40q0 -107 49 -163t120 -56q66 0 130.5 43.5t100.5 125.5l126 -12q-27 -94 -124.5 -178.5t-233.5 -84.5q-84 0 -154.5 39t-107.5 113.5t-37 169.5zM231 447h426 q1 20 1 28q0 98 -48.5 150t-125.5 52q-83 0 -151.5 -57.5t-101.5 -172.5zM409 1050h158l83 -197h-101z" />
<glyph unicode="&#xe9;" d="M76 305q0 125 57.5 242t149 174t198.5 57q136 0 217.5 -84.5t81.5 -230.5q0 -56 -10 -115h-560q-3 -22 -3 -40q0 -107 49 -163t120 -56q66 0 130.5 43.5t100.5 125.5l126 -12q-27 -94 -124.5 -178.5t-233.5 -84.5q-84 0 -154.5 39t-107.5 113.5t-37 169.5zM231 447h426 q1 20 1 28q0 98 -48.5 150t-125.5 52q-83 0 -151.5 -57.5t-101.5 -172.5zM410 853l134 197h164l-191 -197h-107z" />
<glyph unicode="&#xea;" d="M76 305q0 125 57.5 242t149 174t198.5 57q136 0 217.5 -84.5t81.5 -230.5q0 -56 -10 -115h-560q-3 -22 -3 -40q0 -107 49 -163t120 -56q66 0 130.5 43.5t100.5 125.5l126 -12q-27 -94 -124.5 -178.5t-233.5 -84.5q-84 0 -154.5 39t-107.5 113.5t-37 169.5zM231 447h426 q1 20 1 28q0 98 -48.5 150t-125.5 52q-83 0 -151.5 -57.5t-101.5 -172.5zM319 853l190 197h143l89 -197h-114l-57 127l-118 -127h-133z" />
<glyph unicode="&#xeb;" d="M76 305q0 125 57.5 242t149 174t198.5 57q136 0 217.5 -84.5t81.5 -230.5q0 -56 -10 -115h-560q-3 -22 -3 -40q0 -107 49 -163t120 -56q66 0 130.5 43.5t100.5 125.5l126 -12q-27 -94 -124.5 -178.5t-233.5 -84.5q-84 0 -154.5 39t-107.5 113.5t-37 169.5zM231 447h426 q1 20 1 28q0 98 -48.5 150t-125.5 52q-83 0 -151.5 -57.5t-101.5 -172.5zM320 879l30 146h136l-31 -146h-135zM584 879l31 146h134l-30 -146h-135z" />
<glyph unicode="&#xec;" horiz-adv-x="407" d="M90 0l158 760h130l-159 -760h-129zM214 1050h158l83 -197h-101z" />
<glyph unicode="&#xed;" horiz-adv-x="407" d="M90 0l158 760h130l-159 -760h-129zM215 853l134 197h164l-191 -197h-107z" />
<glyph unicode="&#xee;" horiz-adv-x="407" d="M90 0l158 760h130l-159 -760h-129zM110 853l190 197h143l89 -197h-114l-57 127l-118 -127h-133z" />
<glyph unicode="&#xef;" horiz-adv-x="407" d="M90 0l158 760h130l-159 -760h-129zM126 879l30 146h136l-31 -146h-135zM390 879l31 146h134l-30 -146h-135z" />
<glyph unicode="&#xf0;" d="M72 294q0 123 54 237t145 171.5t178 57.5q64 0 118 -22q42 -17 92 -61q-20 102 -76 204l-163 -71l-35 71l151 68q-50 65 -88 101h135q26 -25 53 -54l127 54l32 -71l-111 -50q59 -97 87.5 -196t28.5 -228q0 -150 -59.5 -278t-148 -186.5t-209.5 -58.5q-142 0 -226.5 85 t-84.5 227zM204 298q0 -105 49.5 -158t132.5 -53q79 0 146 56.5t98.5 148.5t31.5 161q0 97 -51 150.5t-134 53.5q-70 0 -131.5 -41.5t-101.5 -131.5t-40 -186z" />
<glyph unicode="&#xf1;" d="M49 0l159 760h117l-28 -132q77 78 143.5 114t135.5 36q93 0 145.5 -50.5t52.5 -133.5q0 -43 -19 -134l-96 -460h-130l101 482q15 70 15 104q0 38 -26 61.5t-76 23.5q-99 0 -176.5 -71.5t-114.5 -245.5l-74 -354h-129zM296 875q24 95 59 127.5t87 32.5q23 0 46 -5.5 t78.5 -30.5t76.5 -25q16 0 29 12t22 45h86q-7 -74 -47.5 -115.5t-93.5 -41.5q-28 0 -72 19q-99 43 -122 43t-38 -15t-21 -46h-90z" />
<glyph unicode="&#xf2;" d="M72 289q0 222 131 368q108 121 283 121q138 0 222 -86t84 -232q0 -131 -53 -244t-151 -173t-206 -60q-88 0 -161 38t-111 107.5t-38 160.5zM201 301q0 -107 51.5 -162.5t131.5 -55.5q41 0 82 17t76 51t60 78.5t40 94.5q22 71 22 136q0 103 -52 160t-131 57 q-61 0 -111 -29t-90.5 -84.5t-59.5 -130t-19 -132.5zM412 1050h158l83 -197h-101z" />
<glyph unicode="&#xf3;" d="M72 289q0 222 131 368q108 121 283 121q138 0 222 -86t84 -232q0 -131 -53 -244t-151 -173t-206 -60q-88 0 -161 38t-111 107.5t-38 160.5zM201 301q0 -107 51.5 -162.5t131.5 -55.5q41 0 82 17t76 51t60 78.5t40 94.5q22 71 22 136q0 103 -52 160t-131 57 q-61 0 -111 -29t-90.5 -84.5t-59.5 -130t-19 -132.5zM384 853l134 197h164l-191 -197h-107z" />
<glyph unicode="&#xf4;" d="M72 289q0 222 131 368q108 121 283 121q138 0 222 -86t84 -232q0 -131 -53 -244t-151 -173t-206 -60q-88 0 -161 38t-111 107.5t-38 160.5zM201 301q0 -107 51.5 -162.5t131.5 -55.5q41 0 82 17t76 51t60 78.5t40 94.5q22 71 22 136q0 103 -52 160t-131 57 q-61 0 -111 -29t-90.5 -84.5t-59.5 -130t-19 -132.5zM296 853l190 197h143l89 -197h-114l-57 127l-118 -127h-133z" />
<glyph unicode="&#xf5;" d="M72 289q0 222 131 368q108 121 283 121q138 0 222 -86t84 -232q0 -131 -53 -244t-151 -173t-206 -60q-88 0 -161 38t-111 107.5t-38 160.5zM201 301q0 -107 51.5 -162.5t131.5 -55.5q41 0 82 17t76 51t60 78.5t40 94.5q22 71 22 136q0 103 -52 160t-131 57 q-61 0 -111 -29t-90.5 -84.5t-59.5 -130t-19 -132.5zM277 875q24 95 59 127.5t87 32.5q23 0 46 -5.5t78.5 -30.5t76.5 -25q16 0 29 12t22 45h86q-7 -74 -47.5 -115.5t-93.5 -41.5q-28 0 -72 19q-99 43 -122 43t-38 -15t-21 -46h-90z" />
<glyph unicode="&#xf6;" d="M72 289q0 222 131 368q108 121 283 121q138 0 222 -86t84 -232q0 -131 -53 -244t-151 -173t-206 -60q-88 0 -161 38t-111 107.5t-38 160.5zM201 301q0 -107 51.5 -162.5t131.5 -55.5q41 0 82 17t76 51t60 78.5t40 94.5q22 71 22 136q0 103 -52 160t-131 57 q-61 0 -111 -29t-90.5 -84.5t-59.5 -130t-19 -132.5zM306 879l30 146h136l-31 -146h-135zM570 879l31 146h134l-30 -146h-135z" />
<glyph unicode="&#xf7;" horiz-adv-x="805" d="M92 458v120h693v-120h-693zM364 228v147h147v-147h-147zM364 660v147h147v-147h-147z" />
<glyph unicode="&#xf8;" horiz-adv-x="896" d="M110 -24l82 103q-72 84 -72 219q0 125 53.5 243t148.5 177.5t212 59.5q100 0 177 -49l80 101l65 -52l-83 -105q66 -84 66 -218q0 -126 -52 -238.5t-150.5 -173t-206.5 -60.5q-97 0 -174 45l-82 -101zM249 299q0 -72 24 -119l366 460q-46 37 -110 37q-74 0 -139 -47 t-103 -141.5t-38 -189.5zM326 116q46 -33 106 -33q53 0 100.5 26t89 77.5t66 129.5t24.5 145q0 60 -22 110z" />
<glyph unicode="&#xf9;" d="M92 157q0 48 24 164l92 439h129l-101 -486q-13 -61 -13 -94q0 -43 26 -67t77 -24q54 0 106 26.5t89.5 71.5t61.5 107q16 39 36 138l69 328h130l-159 -760h-120l29 137q-137 -154 -280 -154q-88 0 -142 50.5t-54 123.5zM413 1050h158l83 -197h-101z" />
<glyph unicode="&#xfa;" d="M92 157q0 48 24 164l92 439h129l-101 -486q-13 -61 -13 -94q0 -43 26 -67t77 -24q54 0 106 26.5t89.5 71.5t61.5 107q16 39 36 138l69 328h130l-159 -760h-120l29 137q-137 -154 -280 -154q-88 0 -142 50.5t-54 123.5zM419 853l134 197h164l-191 -197h-107z" />
<glyph unicode="&#xfb;" d="M92 157q0 48 24 164l92 439h129l-101 -486q-13 -61 -13 -94q0 -43 26 -67t77 -24q54 0 106 26.5t89.5 71.5t61.5 107q16 39 36 138l69 328h130l-159 -760h-120l29 137q-137 -154 -280 -154q-88 0 -142 50.5t-54 123.5zM305 853l190 197h143l89 -197h-114l-57 127 l-118 -127h-133z" />
<glyph unicode="&#xfc;" d="M92 157q0 48 24 164l92 439h129l-101 -486q-13 -61 -13 -94q0 -43 26 -67t77 -24q54 0 106 26.5t89.5 71.5t61.5 107q16 39 36 138l69 328h130l-159 -760h-120l29 137q-137 -154 -280 -154q-88 0 -142 50.5t-54 123.5zM324 879l30 146h136l-31 -146h-135zM588 879l31 146 h134l-30 -146h-135z" />
<glyph unicode="&#xfd;" horiz-adv-x="733" d="M0 -294l8 122q40 -11 78 -11q39 0 64 18q31 23 68 88l42 75l-127 762h128l57 -384q17 -114 29 -228l340 612h136l-485 -861q-70 -126 -124.5 -167t-125.5 -41q-45 0 -88 15zM375 853l134 197h164l-191 -197h-107z" />
<glyph unicode="&#xfe;" d="M-15 -291l281 1341h130l-80 -381q58 59 110 84t106 25q110 0 181.5 -79.5t71.5 -226.5q0 -119 -39.5 -216.5t-97 -157t-116 -87.5t-120.5 -28q-136 0 -212 139l-85 -413h-130zM241 311q0 -85 12 -118q18 -47 59 -75.5t95 -28.5q111 0 180 125.5t69 256.5 q0 97 -46.5 149.5t-114.5 52.5q-50 0 -92 -26t-78 -78t-60 -127t-24 -131z" />
<glyph unicode="&#xff;" horiz-adv-x="733" d="M0 -294l8 122q40 -11 78 -11q39 0 64 18q31 23 68 88l42 75l-127 762h128l57 -384q17 -114 29 -228l340 612h136l-485 -861q-70 -126 -124.5 -167t-125.5 -41q-45 0 -88 15zM292 879l30 146h136l-31 -146h-135zM556 879l31 146h134l-30 -146h-135z" />
<glyph unicode="&#x152;" horiz-adv-x="1466" d="M117 424q0 182 73.5 335t195.5 231t253 78q81 0 151 -36.5t120 -106.5l26 125h595l-25 -120h-455l-69 -331h459l-25 -120h-459l-76 -360h509l-25 -119h-649l16 77q-51 -48 -107 -72t-135 -24q-166 0 -269.5 113.5t-103.5 329.5zM256 440q0 -134 27 -200.5t87 -104 t132 -37.5q102 0 183.5 75t121.5 247q50 216 50 299q0 99 -66 165.5t-162 66.5q-55 0 -103 -21t-91 -59.5t-76 -87.5q-43 -66 -69 -145q-34 -108 -34 -198z" />
<glyph unicode="&#x153;" horiz-adv-x="1384" d="M92 300q0 130 52 243t145 174t206 61q87 0 156.5 -37.5t108.5 -106.5q68 72 116 99q80 45 174 45q131 0 214.5 -86t83.5 -229q0 -59 -13 -116h-551q-2 -26 -2 -49q0 -80 42 -144.5t127 -64.5q64 0 124 47t94 122l134 -12q-53 -121 -149.5 -192t-205.5 -71 q-83 0 -150.5 36t-106.5 112q-63 -73 -135 -110.5t-164 -37.5q-138 0 -219 83t-81 234zM219 306q0 -115 48 -169t126 -54q70 0 136.5 51t103.5 152t37 188q0 79 -43 141.5t-132 62.5q-59 0 -111.5 -31t-91.5 -88.5t-56 -134.5t-17 -118zM806 446h415q3 22 3 34q0 96 -48 147 t-124 51q-71 0 -138.5 -56.5t-107.5 -175.5z" />
<glyph unicode="&#x178;" horiz-adv-x="978" d="M171 1050h150l155 -307q51 -100 99 -215q53 98 145 213l246 309h167l-501 -655l-82 -395h-140l84 406zM456 1112l30 146h136l-31 -146h-135zM720 1112l31 146h134l-30 -146h-135z" />
<glyph unicode="&#x2c6;" horiz-adv-x="488" d="M147 853l190 197h143l89 -197h-114l-57 127l-118 -127h-133z" />
<glyph unicode="&#x2dc;" horiz-adv-x="488" d="M137 875q24 95 59 127.5t87 32.5q23 0 46 -5.5t78.5 -30.5t76.5 -25q16 0 29 12t22 45h86q-7 -74 -47.5 -115.5t-93.5 -41.5q-28 0 -72 19q-99 43 -122 43t-38 -15t-21 -46h-90z" />
<glyph unicode="&#x2000;" horiz-adv-x="682" />
<glyph unicode="&#x2001;" horiz-adv-x="1365" />
<glyph unicode="&#x2002;" horiz-adv-x="682" />
<glyph unicode="&#x2003;" horiz-adv-x="1365" />
<glyph unicode="&#x2004;" horiz-adv-x="455" />
<glyph unicode="&#x2005;" horiz-adv-x="341" />
<glyph unicode="&#x2006;" horiz-adv-x="227" />
<glyph unicode="&#x2007;" horiz-adv-x="227" />
<glyph unicode="&#x2008;" horiz-adv-x="170" />
<glyph unicode="&#x2009;" horiz-adv-x="273" />
<glyph unicode="&#x200a;" horiz-adv-x="75" />
<glyph unicode="&#x2010;" horiz-adv-x="488" d="M68 315l27 130h395l-26 -130h-396z" />
<glyph unicode="&#x2011;" horiz-adv-x="488" d="M68 315l27 130h395l-26 -130h-396z" />
<glyph unicode="&#x2012;" horiz-adv-x="488" d="M68 315l27 130h395l-26 -130h-396z" />
<glyph unicode="&#x2013;" d="M-3 328v104h816v-104h-816z" />
<glyph unicode="&#x2014;" horiz-adv-x="1466" d="M0 328v104h1466v-104h-1466z" />
<glyph unicode="&#x2018;" horiz-adv-x="326" d="M189 708l27 129q24 115 75 169t121 62l-12 -57q-84 -23 -113 -156h80l-30 -147h-148z" />
<glyph unicode="&#x2019;" horiz-adv-x="326" d="M183 686l12 56q85 24 113 157h-80l30 146h148l-27 -129q-24 -115 -75 -168t-121 -62z" />
<glyph unicode="&#x201a;" horiz-adv-x="326" d="M-11 -212l12 57q86 23 113 155h-80l30 147h148l-27 -128q-24 -116 -75 -169.5t-121 -61.5z" />
<glyph unicode="&#x201c;" horiz-adv-x="488" d="M155 708l27 129q23 115 74.5 169t120.5 62l-11 -57q-84 -23 -113 -156h80l-31 -147h-147zM383 708l27 129q24 115 75 169t121 62l-12 -57q-83 -23 -113 -156h80l-30 -147h-148z" />
<glyph unicode="&#x201d;" horiz-adv-x="488" d="M153 686l12 56q85 24 113 157h-80l30 146h148l-27 -129q-24 -115 -75 -168t-121 -62zM390 686l11 56q84 24 113 157h-80l31 146h147l-27 -129q-24 -115 -75 -168t-120 -62z" />
<glyph unicode="&#x201e;" horiz-adv-x="488" d="M-29 -212l13 57q85 23 112 155h-80l31 147h147l-26 -128q-25 -116 -76 -169.5t-121 -61.5zM205 -212l11 57q85 23 113 155h-80l31 147h147l-26 -128q-24 -116 -75.5 -169.5t-120.5 -61.5z" />
<glyph unicode="&#x2022;" horiz-adv-x="513" d="M78 514q0 75 53.5 128t127.5 53q75 0 128.5 -53t53.5 -128t-53.5 -128.5t-128.5 -53.5q-74 0 -127.5 53.5t-53.5 128.5z" />
<glyph unicode="&#x2026;" horiz-adv-x="1466" d="M211 0l30 147h147l-31 -147h-146zM700 0l31 147h147l-31 -147h-147zM1191 0l30 147h147l-31 -147h-146z" />
<glyph unicode="&#x202f;" horiz-adv-x="273" />
<glyph unicode="&#x2039;" horiz-adv-x="488" d="M69 393l285 309h106l-260 -325l115 -325h-97z" />
<glyph unicode="&#x203a;" horiz-adv-x="488" d="M24 52l259 322l-108 328h104l143 -343l-287 -307h-111z" />
<glyph unicode="&#x205f;" horiz-adv-x="341" />
<glyph unicode="&#x20ac;" d="M58 383l20 96h57q2 49 10 95h-87l20 95h90q43 131 136 233q151 166 377 166q161 0 265 -85l-60 -122q-65 91 -199 91q-192 0 -311 -172q-37 -53 -60 -111h451l-21 -95h-459q-9 -46 -13 -95h453l-21 -96h-431q10 -130 82 -205q75 -80 202 -80q112 0 197 71l-32 -153 q-82 -34 -176 -34q-186 0 -295 108q-106 105 -118 293h-77z" />
<glyph unicode="&#x2122;" horiz-adv-x="1466" d="M200 963v87h477v-87h-190v-497h-97v497h-190zM742 466v584h144l147 -466l143 466h140v-584h-89v490l-150 -490h-88l-157 497v-497h-90z" />
<glyph unicode="&#x25fc;" horiz-adv-x="760" d="M0 0v760h760v-760h-760z" />
</font>
</defs>
</svg>
