<?xml version="1.0" standalone="no"?>
<!DOCTYPE svg PUBLIC "-//W3C//DTD SVG 1.1//EN" "http://www.w3.org/Graphics/SVG/1.1/DTD/svg11.dtd" >
<svg xmlns="http://www.w3.org/2000/svg">
<metadata></metadata>
<defs>
<font id="utsaahbold_italic" horiz-adv-x="816" >
<font-face units-per-em="2048" ascent="1638" descent="-410" />
<missing-glyph horiz-adv-x="407" />
<glyph horiz-adv-x="0" />
<glyph horiz-adv-x="682" />
<glyph unicode=" "  horiz-adv-x="407" />
<glyph unicode="&#x09;" horiz-adv-x="407" />
<glyph unicode="&#xa0;" horiz-adv-x="407" />
<glyph unicode="!" horiz-adv-x="488" d="M90 0l42 198h203l-41 -198h-204zM186 267l65 536l51 247h216l-55 -266l-164 -517h-113z" />
<glyph unicode="&#x22;" horiz-adv-x="695" d="M222 677l4 195l37 178h220l-38 -178l-75 -195h-148zM483 677l4 195l37 178h220l-38 -178l-75 -195h-148z" />
<glyph unicode="#" d="M70 261v158h129l43 211h-172v158h204l57 280h160l-56 -280h158l55 280h166l-57 -280h99v-158h-131l-43 -211h174v-158h-207l-56 -279h-160l55 279h-159l-56 -279h-162l57 279h-98zM361 419h159l41 211h-158z" />
<glyph unicode="$" d="M64 305l182 9q13 -123 95 -160l66 316q-114 51 -166.5 130t-52.5 165q0 77 41.5 149.5t118.5 113t146 40.5h38l13 61h102l-15 -74q92 -23 148 -88.5t65 -168.5l-176 -9q-13 80 -70 111l-59 -285q127 -52 182.5 -128.5t55.5 -175.5q0 -138 -102 -234t-269 -96l-26 -126 h-102l28 138q-102 25 -168 107t-75 205zM359 786q0 -80 87 -129l54 260q-60 1 -100.5 -38t-40.5 -93zM440 140q81 6 125 49.5t44 104.5q0 39 -20 67.5t-89 65.5z" />
<glyph unicode="%" horiz-adv-x="1304" d="M133 724q0 137 74 240.5t206 103.5q90 0 144 -57.5t54 -159.5q0 -85 -36.5 -170t-100.5 -125t-142 -40q-89 0 -144 56t-55 152zM182 -45l875 1113h164l-874 -1113h-165zM284 707q0 -36 16 -53t43 -17q52 0 86.5 78t34.5 164q0 32 -16.5 49.5t-42.5 17.5q-31 0 -55 -25 t-45 -96.5t-21 -117.5zM789 164q0 137 74 240.5t206 103.5q90 0 144 -57t54 -160q0 -84 -36.5 -169.5t-100.5 -125t-143 -39.5q-88 0 -143 56t-55 151zM939 148q0 -36 16 -53t44 -17q51 0 86 77.5t35 163.5q0 33 -16.5 50.5t-43.5 17.5q-30 0 -54 -25t-45.5 -97t-21.5 -117z " />
<glyph unicode="&#x26;" horiz-adv-x="1059" d="M122 280q0 79 36.5 147.5t95.5 117.5q42 35 138 86q-47 101 -47 176q0 110 80.5 185.5t212.5 75.5q113 0 179.5 -60t66.5 -140q0 -68 -57 -147t-188 -145q41 -69 102 -158q37 -54 59 -78q36 37 87 117l148 -89q-20 -40 -53.5 -87t-62.5 -73q41 -44 105 -98l-130 -134 q-24 13 -61.5 43.5t-63.5 57.5q-52 -40 -130 -67.5t-168 -27.5q-163 0 -256 86.5t-93 211.5zM324 299q0 -66 42.5 -108t112.5 -42q85 0 175 59q-108 132 -188 278q-142 -71 -142 -187zM534 826q0 -46 31 -110q84 43 119 87q24 31 24 63q0 30 -19.5 49t-54.5 19 q-43 0 -71.5 -30t-28.5 -78z" />
<glyph unicode="'" horiz-adv-x="349" d="M222 677l4 195l37 178h220l-38 -178l-75 -195h-148z" />
<glyph unicode="(" horiz-adv-x="488" d="M97 225q0 146 46.5 293t143.5 300q61 97 196 250h156q-137 -161 -211 -302t-110.5 -307t-36.5 -325q0 -108 16 -209.5t55 -233.5h-140q-59 137 -87 277t-28 257z" />
<glyph unicode=")" horiz-adv-x="488" d="M-115 -309q136 161 210.5 301t111 306.5t36.5 326.5q0 108 -16 209.5t-54 233.5h139q59 -136 87 -276.5t28 -256.5q0 -146 -46.5 -293t-143.5 -301q-62 -97 -195 -250h-157z" />
<glyph unicode="*" horiz-adv-x="571" d="M144 835l42 126q94 -38 168 -84q-17 117 -17 191h127q0 -53 -19 -192q14 5 61 28q65 29 119 50l38 -130q-79 -18 -184 -35l86 -97q26 -29 41 -48l-110 -72l-96 160q-44 -78 -101 -165l-108 84q52 58 108 111q22 21 27 27q-17 3 -102 24q-61 15 -80 22z" />
<glyph unicode="+" horiz-adv-x="856" d="M118 424v188h275v273h183v-273h276v-188h-276v-273h-183v273h-275z" />
<glyph unicode="," horiz-adv-x="407" d="M15 -228l20 96q52 11 80 40.5t42 91.5h-95l43 198h206l-34 -164q-29 -141 -94 -200.5t-168 -61.5z" />
<glyph unicode="-" horiz-adv-x="488" d="M57 279l41 199h399l-42 -199h-398z" />
<glyph unicode="." horiz-adv-x="407" d="M64 0l42 198h203l-41 -198h-204z" />
<glyph unicode="/" horiz-adv-x="407" d="M-64 -18l520 1086h143l-519 -1086h-144z" />
<glyph unicode="0" d="M95 342q0 158 53 320q66 199 169 295.5t229 96.5q128 0 210 -92.5t82 -268.5q0 -161 -60 -340.5t-161.5 -275t-229.5 -95.5q-127 0 -209.5 92.5t-82.5 267.5zM296 300q0 -84 27.5 -118.5t70.5 -34.5q57 0 101 53q60 71 106 279q36 165 36 262q0 79 -27.5 113.5 t-70.5 34.5q-54 0 -97 -52q-62 -76 -107 -267q-39 -165 -39 -270z" />
<glyph unicode="1" d="M174 603l39 183q265 116 411 270h125l-221 -1056h-207l152 727q-64 -41 -148 -75.5t-151 -48.5z" />
<glyph unicode="2" d="M89 0q10 77 45.5 147t88.5 130t194 194q106 102 134 133q50 55 68.5 96t18.5 74q0 53 -31 86t-79 33q-49 0 -85.5 -37t-55.5 -134l-201 31q25 146 114 223.5t223 77.5q146 0 230 -79.5t84 -201.5q0 -63 -26 -125.5t-84 -131.5q-43 -48 -138.5 -137.5t-127 -122 t-59.5 -68.5h363l-38 -188h-638z" />
<glyph unicode="3" d="M74 274l197 24q13 -84 44.5 -116t84.5 -32q70 0 116.5 47t46.5 121q0 64 -37.5 102t-100.5 38q-15 0 -33 -3l36 171q11 -2 21 -2q82 0 125 42t43 114q0 51 -29 80t-76 29q-44 0 -79.5 -32.5t-55.5 -111.5l-188 38q36 116 100 178q96 93 237 93q145 0 220 -80.5t75 -193.5 q0 -81 -48 -147t-131 -97q66 -35 97.5 -90.5t31.5 -116.5q0 -116 -82 -214q-113 -133 -290 -133q-133 0 -219.5 76.5t-105.5 215.5z" />
<glyph unicode="4" d="M40 214l36 172l568 664h177l-138 -661h128l-37 -175h-127l-46 -214h-193l45 214h-413zM281 389h209l68 327z" />
<glyph unicode="5" d="M93 301l200 18q-1 -15 -1 -22q0 -73 32.5 -109.5t85.5 -36.5q73 0 132.5 70t59.5 193q0 73 -33.5 110t-89.5 37q-40 0 -77.5 -18.5t-72.5 -56.5l-169 13l159 536h528l-39 -187h-348l-48 -162q30 14 60 20.5t59 6.5q121 0 198 -81t77 -217q0 -109 -54 -214.5t-150 -162 t-201 -56.5q-134 0 -220 86.5t-88 232.5z" />
<glyph unicode="6" d="M119 380q0 282 124.5 478t328.5 196q118 0 187 -64.5t85 -196.5l-192 -15q-6 62 -30 87t-65 25q-52 0 -93 -42q-58 -59 -93 -191q66 43 141 43q122 0 200.5 -83t78.5 -226q0 -114 -55 -215.5t-137.5 -148t-173.5 -46.5q-88 0 -159 44t-109 128.5t-38 226.5zM316 309 q0 -83 33 -122.5t82 -39.5q60 0 103 56q58 75 58 202q0 81 -32 120t-79 39q-39 0 -79 -29.5t-63 -94.5t-23 -131z" />
<glyph unicode="7" d="M152 846l39 189h693l-31 -146q-66 -53 -145.5 -159t-147 -237.5t-110.5 -249.5q-60 -164 -74 -243h-196q13 79 61 216q59 169 147 326.5t213 303.5h-449z" />
<glyph unicode="8" d="M97 272q0 105 58.5 188t159.5 118q-55 36 -82.5 84t-27.5 106q0 67 38.5 136.5t115.5 109.5t174 40q141 0 219.5 -73t78.5 -185q0 -79 -44.5 -137t-132.5 -97q64 -39 96 -95.5t32 -128.5q0 -119 -76 -216q-110 -141 -301 -141q-139 0 -223.5 82t-84.5 209zM301 269 q0 -59 32.5 -93t83.5 -34q80 0 123.5 70.5t43.5 152.5q0 53 -33.5 87t-85.5 34q-64 0 -114 -59.5t-50 -157.5zM393 754q0 -49 30 -79.5t78 -30.5q55 0 97 41.5t42 97.5q0 51 -30.5 82.5t-78.5 31.5q-57 0 -97.5 -41.5t-40.5 -101.5z" />
<glyph unicode="9" d="M93 242l193 16q5 -62 29 -87t65 -25q52 0 93 41q58 59 93 192q-67 -43 -141 -43q-121 0 -200 82.5t-79 225.5q0 161 101 285.5t268 124.5q147 0 225 -107.5t78 -290.5q0 -283 -124.5 -478.5t-329.5 -195.5q-119 0 -190.5 68.5t-80.5 191.5zM345 631q0 -82 32.5 -121 t78.5 -39q39 0 79.5 30t63 95t22.5 131q0 84 -33 123t-82 39q-60 0 -103 -56q-58 -75 -58 -202z" />
<glyph unicode=":" horiz-adv-x="488" d="M103 0l42 198h203l-42 -198h-203zM221 561l41 199h203l-42 -199h-202z" />
<glyph unicode=";" horiz-adv-x="488" d="M59 -228l20 96q52 11 80.5 40.5t41.5 91.5h-94l42 198h207l-35 -164q-29 -141 -93.5 -200.5t-168.5 -61.5zM224 561l42 199h203l-42 -199h-203z" />
<glyph unicode="&#x3c;" horiz-adv-x="856" d="M125 432v174l720 311v-204l-502 -192l502 -199v-202z" />
<glyph unicode="=" horiz-adv-x="856" d="M118 266v186h734v-186h-734zM118 584v185h734v-185h-734z" />
<glyph unicode="&#x3e;" horiz-adv-x="856" d="M125 119v202l503 198l-503 196v201l721 -312v-172z" />
<glyph unicode="?" horiz-adv-x="896" d="M180 766q37 140 141.5 221t254.5 81q156 0 243 -78t87 -186q0 -63 -37 -125.5t-204 -200.5q-104 -88 -128.5 -122.5t-35.5 -93.5h-185q15 96 60.5 166.5t181.5 188.5q116 101 136.5 133.5t20.5 62.5q0 44 -35.5 73.5t-107.5 29.5q-80 0 -131 -43.5t-72 -139.5zM253 0 l42 198h203l-41 -198h-204z" />
<glyph unicode="@" horiz-adv-x="1430" d="M95 346q0 201 95.5 374.5t260.5 260.5t378 87q181 0 321 -70t214 -199.5t74 -282.5q0 -182 -112 -330q-141 -186 -362 -186q-59 0 -89 21t-40 61q-85 -82 -195 -82q-119 0 -197.5 82t-78.5 218q0 168 95 307q115 169 294 169q127 0 188 -97l18 79h189l-108 -513 q-10 -49 -10 -63q0 -18 8 -27t20 -9q34 0 88 42q73 54 118.5 145.5t45.5 189.5q0 177 -127.5 295.5t-356.5 118.5q-194 0 -329 -79.5t-203 -223t-68 -298.5q0 -151 76 -275t214 -181t315 -57q171 0 294.5 47.5t198.5 143.5h152q-71 -146 -219 -228q-170 -95 -414 -95 q-237 0 -408.5 80t-255.5 236t-84 339zM550 308q0 -91 37 -134t91 -43q41 0 77 20q27 14 53 45q38 44 65.5 127.5t27.5 156.5q0 81 -37.5 124t-94.5 43q-62 0 -114 -47.5t-78.5 -135.5t-26.5 -156z" />
<glyph unicode="A" horiz-adv-x="1059" d="M-16 0l593 1050h240l170 -1050h-204l-35 232h-416l-127 -232h-221zM407 407h314l-61 422z" />
<glyph unicode="B" horiz-adv-x="1059" d="M59 0l220 1050h358q117 0 163 -8q78 -10 131.5 -42.5t81.5 -86t28 -118.5q0 -88 -48.5 -152t-150.5 -97q81 -22 126.5 -79t45.5 -128q0 -95 -54 -180t-148.5 -122t-258.5 -37h-494zM310 169h208q131 0 176 17t72 55.5t27 81.5q0 52 -39 86t-129 34h-258zM405 626h165 q111 0 159.5 15.5t73 51.5t24.5 77q0 40 -23 65.5t-65 34.5q-24 4 -114 4h-167z" />
<glyph unicode="C" horiz-adv-x="1059" d="M139 434q0 179 72.5 327.5t201.5 227.5t281 79q170 0 275.5 -91.5t123.5 -249.5l-207 -20q-17 92 -66 133t-130 41q-90 0 -167.5 -54t-124 -170t-46.5 -231q0 -126 60.5 -194.5t150.5 -68.5q84 0 153.5 54t104.5 161l217 -33q-64 -177 -191 -270.5t-299 -93.5 q-192 0 -300.5 116t-108.5 337z" />
<glyph unicode="D" horiz-adv-x="1059" d="M64 0l220 1050h282q118 0 151 -4q66 -6 117 -26t93 -56.5t72.5 -87t47 -117t16.5 -145.5q0 -169 -65 -300.5t-163 -208.5q-75 -61 -194 -89q-67 -16 -207 -16h-370zM315 169h110q118 0 171.5 14.5t98.5 54.5q63 58 107 155t44 228q0 111 -36.5 167.5t-89.5 74.5 q-37 13 -132 13h-125z" />
<glyph unicode="E" horiz-adv-x="978" d="M60 0l219 1050h779l-37 -176h-562l-50 -238h543l-36 -176h-544l-66 -285h611l-37 -175h-820z" />
<glyph unicode="F" horiz-adv-x="896" d="M57 0l220 1050h735l-38 -176h-518l-53 -252h508l-36 -175h-508l-93 -447h-217z" />
<glyph unicode="G" horiz-adv-x="1141" d="M130 419q0 153 60 293q73 169 208 262.5t317 93.5q181 0 291 -84.5t146 -246.5l-201 -23q-27 89 -86 134t-148 45q-105 0 -192.5 -54.5t-136.5 -168.5t-49 -248q0 -133 60 -196t176 -63q69 0 142 19.5t126 46.5l33 156h-268l36 176h470l-94 -451q-83 -53 -204 -90.5 t-246 -37.5q-195 0 -299 88q-141 120 -141 349z" />
<glyph unicode="H" horiz-adv-x="1059" d="M64 0l220 1050h215l-84 -406h406l85 406h215l-219 -1050h-216l98 469h-406l-98 -469h-216z" />
<glyph unicode="I" horiz-adv-x="407" d="M51 0l220 1050h215l-219 -1050h-216z" />
<glyph unicode="J" d="M42 241q0 25 4 55l200 22q-5 -32 -5 -52q0 -50 29 -76.5t88 -26.5q83 0 117 48q25 37 61 210l131 629h212l-132 -636q-53 -253 -139 -342.5t-264 -89.5q-151 0 -226.5 69.5t-75.5 189.5z" />
<glyph unicode="K" horiz-adv-x="1059" d="M58 0l219 1050h216l-93 -446l486 446h289l-471 -412l346 -638h-244l-260 500l-204 -179l-67 -321h-217z" />
<glyph unicode="L" horiz-adv-x="896" d="M66 0l220 1050h215l-182 -875h534l-37 -175h-750z" />
<glyph unicode="M" horiz-adv-x="1221" d="M59 0l220 1050h307l33 -736l358 736h311l-220 -1050h-197l207 871l-414 -871h-205l-38 877l-167 -877h-195z" />
<glyph unicode="N" horiz-adv-x="1059" d="M66 0l219 1050h202l284 -703l147 703h200l-219 -1050h-201l-283 705l-148 -705h-201z" />
<glyph unicode="O" horiz-adv-x="1141" d="M128 412q0 93 28 196q37 138 111.5 239.5t188.5 161t259 59.5q195 0 315 -121t120 -321q0 -166 -78 -321.5t-212 -239.5t-303 -84q-147 0 -246.5 67t-141 165t-41.5 199zM342 416q0 -108 65.5 -181t173.5 -73q87 0 167.5 57.5t133 174.5t52.5 228q0 124 -66.5 194.5 t-169.5 70.5q-158 0 -257 -147.5t-99 -323.5z" />
<glyph unicode="P" horiz-adv-x="978" d="M59 0l220 1050h427q114 0 180 -27t105 -89t39 -148q0 -79 -31 -154.5t-75.5 -120.5t-96.5 -68t-139 -36q-51 -7 -190 -7h-139l-83 -400h-217zM395 574h67q171 0 228.5 21.5t90 69t32.5 103.5q0 38 -16.5 62.5t-47 35.5t-135.5 11h-155z" />
<glyph unicode="Q" horiz-adv-x="1141" d="M128 415q0 158 74 319.5t208 247.5t305 86q195 0 314.5 -121t119.5 -321q0 -153 -64 -293.5t-171 -227.5q68 -68 144 -111l-101 -134q-101 49 -185 161q-50 -20 -104 -30t-111 -10q-192 0 -310.5 120t-118.5 314zM342 426q0 -122 68 -192.5t173 -70.5q29 0 61 4 q12 2 14.5 4t2.5 7t-22 25q-45 43 -96 62l79 120q97 -48 168 -131q65 66 104.5 170.5t39.5 196.5q0 125 -66.5 195.5t-169.5 70.5q-71 0 -131 -32.5t-110.5 -94t-82.5 -152.5t-32 -182z" />
<glyph unicode="R" horiz-adv-x="1059" d="M64 0l220 1050h466q121 0 188 -25t108 -90.5t41 -159.5q0 -134 -80 -221t-243 -108q42 -37 78 -98q72 -123 161 -348h-232q-28 89 -109 277q-45 102 -95 137q-31 21 -107 21h-88l-91 -435h-217zM405 592h114q174 0 231 21t89 65t32 93q0 57 -46 86q-29 17 -124 17h-238z " />
<glyph unicode="S" horiz-adv-x="978" d="M93 340l206 11q4 -98 33 -133q47 -55 175 -55q106 0 153 37.5t47 91.5q0 47 -38 79q-27 24 -149.5 76.5t-178.5 88t-88 92t-32 132.5q0 133 95.5 220.5t277.5 87.5q185 0 286.5 -87t111.5 -231l-207 -9q-8 75 -54.5 115t-137.5 40q-90 0 -128 -31.5t-38 -79.5 q0 -45 35 -74q35 -30 155 -82q181 -78 231 -127q73 -72 73 -184q0 -139 -109.5 -237.5t-306.5 -98.5q-138 0 -234.5 45.5t-137 125t-40.5 187.5z" />
<glyph unicode="T" horiz-adv-x="896" d="M176 874l37 176h827l-37 -176h-303l-183 -874h-216l183 874h-308z" />
<glyph unicode="U" horiz-adv-x="1059" d="M134 303q0 29 5 64q3 23 25 130l116 553h215l-118 -570l-30 -141q-3 -18 -3 -33q0 -63 45.5 -103t132.5 -40q78 0 129 29t79 87t56 197l120 574h216l-120 -575q-38 -181 -87 -277t-149.5 -156t-253.5 -60q-183 0 -280.5 90t-97.5 231z" />
<glyph unicode="V" horiz-adv-x="978" d="M166 1050h216l133 -794l434 794h215l-579 -1050h-231z" />
<glyph unicode="W" horiz-adv-x="1384" d="M172 1050h211l9 -735l361 735h234l24 -727l346 727h209l-508 -1050h-218l-24 768l-382 -768h-223z" />
<glyph unicode="X" horiz-adv-x="978" d="M-44 0l463 531l-261 519h226l102 -197q5 -11 70 -146q5 -7 10 -19q87 107 146 175l166 187h271l-480 -553l258 -497h-243l-79 158q-62 126 -82 180q-28 -42 -144 -175l-144 -163h-279z" />
<glyph unicode="Y" horiz-adv-x="978" d="M168 1050h230l130 -297q47 -106 63 -154q26 47 61 99l100 139l148 213h251l-482 -661l-81 -389h-216l86 409z" />
<glyph unicode="Z" horiz-adv-x="896" d="M37 0l34 165l604 709h-489l37 176h756l-31 -165l-611 -713q98 2 113 2q68 0 189 1h248l-36 -175h-814z" />
<glyph unicode="[" horiz-adv-x="488" d="M14 -289l280 1339h350l-33 -160h-157l-214 -1026h157l-33 -153h-350z" />
<glyph unicode="\" horiz-adv-x="407" d="M115 1068h143l163 -1086h-144z" />
<glyph unicode="]" horiz-adv-x="488" d="M-82 -289l34 160h158l214 1025h-158l32 154h352l-280 -1339h-352z" />
<glyph unicode="^" horiz-adv-x="856" d="M154 495l269 573h160l262 -573h-203l-142 351l-141 -351h-205z" />
<glyph unicode="_" d="M-14 -160h837v-130h-837v130z" />
<glyph unicode="`" horiz-adv-x="488" d="M196 1073h198l91 -214h-138z" />
<glyph unicode="a" d="M66 203q0 109 67.5 174t241.5 79q147 12 196 29q13 43 13 69q0 33 -26.5 55.5t-78.5 22.5q-55 0 -87 -23t-43 -64l-201 17q35 102 120.5 159t226.5 57q147 0 217 -59t70 -144q0 -34 -6 -73t-43 -203q-30 -136 -30 -191q0 -49 17 -108h-199q-13 42 -16 86 q-45 -50 -103.5 -77t-117.5 -27q-95 0 -156.5 62t-61.5 159zM259 221q0 -36 26 -60.5t68 -24.5q47 0 88 22.5t61.5 58t35.5 110.5l6 27q-18 -5 -49 -9q-155 -19 -202 -54q-34 -26 -34 -70z" />
<glyph unicode="b" horiz-adv-x="896" d="M53 0l219 1050h206l-73 -351q56 43 105 61t107 18q120 0 192.5 -80.5t72.5 -234.5q0 -104 -34 -201.5t-91 -158.5t-119.5 -91t-131.5 -30q-163 0 -240 143l-26 -125h-187zM330 310q0 -77 43.5 -125t101.5 -48q52 0 99 37.5t78 119t31 164.5q0 81 -42 127.5t-101 46.5 q-77 0 -133 -72q-77 -98 -77 -250z" />
<glyph unicode="c" d="M88 307q0 124 51.5 234.5t155.5 173.5t228 63q134 0 214.5 -70t90.5 -185l-196 -20q-7 63 -39 93.5t-83 30.5q-60 0 -111.5 -44.5t-79 -133t-27.5 -165.5q0 -68 33 -104.5t82 -36.5q50 0 95.5 36t71.5 107l200 -32q-49 -133 -146 -202.5t-224 -69.5q-146 0 -231 86.5 t-85 238.5z" />
<glyph unicode="d" horiz-adv-x="896" d="M87 301q0 182 103 329.5t273 147.5q153 0 229 -121l83 393h205l-219 -1050h-195l18 82q-56 -53 -110 -76.5t-122 -23.5q-119 0 -192 80.5t-73 238.5zM286 309q0 -81 41.5 -127t101.5 -46q56 0 104 38.5t77 117t29 150.5q0 83 -44 134t-102 51q-91 0 -149 -100.5 t-58 -217.5z" />
<glyph unicode="e" d="M85 336q0 156 87 278q118 164 337 164q140 0 222 -86t82 -242q0 -74 -14 -134h-515q-1 -12 -1 -18q0 -76 43 -122.5t106 -46.5q102 0 159 106l184 -31q-53 -111 -143 -166.5t-202 -55.5q-153 0 -249 97t-96 257zM304 442h322q1 13 1 21q0 84 -38 126.5t-102 42.5 t-114.5 -48t-68.5 -142z" />
<glyph unicode="f" horiz-adv-x="488" d="M79 0l127 610h-114l31 150h115l16 78q20 96 38 130q24 46 72.5 73t126.5 27q95 0 199 -35l-40 -147q-74 25 -119 25q-36 0 -53 -22q-11 -14 -23 -75l-12 -54h146l-32 -150h-145l-128 -610h-205z" />
<glyph unicode="g" horiz-adv-x="896" d="M46 -70q0 13 2 30l217 -32q0 -33 10.5 -49.5t34.5 -28.5t66 -12q65 0 104 26q30 20 48 64q12 28 30 122l7 36q-107 -89 -221 -89q-111 0 -182.5 79t-71.5 230q0 134 48.5 246t136.5 169t180 57q76 0 139 -40t98 -112l28 134h193l-132 -633q-32 -153 -54 -218t-51 -103.5 t-72.5 -65t-103 -38t-128.5 -11.5q-161 0 -243.5 55.5t-82.5 183.5zM290 327q0 -86 39 -131.5t98 -45.5q53 0 103.5 40.5t77.5 116t27 145.5q0 81 -43.5 130.5t-101.5 49.5q-55 0 -101 -44t-76 -135q-23 -70 -23 -126z" />
<glyph unicode="h" horiz-adv-x="896" d="M62 0l219 1050h206l-79 -374q70 54 130 78t129 24q92 0 145.5 -53t53.5 -139q0 -45 -20 -141l-93 -445h-205l95 453q15 74 15 95q0 38 -23.5 61t-64.5 23q-52 0 -99 -36q-61 -48 -94 -116q-18 -38 -47 -179l-63 -301h-205z" />
<glyph unicode="i" horiz-adv-x="407" d="M59 0l159 760h205l-159 -760h-205zM239 863l39 187h205l-38 -187h-206z" />
<glyph unicode="j" horiz-adv-x="407" d="M-160 -286l32 170q49 -12 83 -12q41 0 66.5 32t65.5 226l132 630h206l-135 -643q-57 -276 -98 -335q-62 -91 -198 -91q-84 0 -154 23zM241 863l38 187h206l-38 -187h-206z" />
<glyph unicode="k" d="M55 0l220 1050h205l-114 -547l268 257h267l-306 -276l163 -484h-206l-104 352l-139 -124l-48 -228h-206z" />
<glyph unicode="l" horiz-adv-x="407" d="M57 0l220 1050h205l-219 -1050h-206z" />
<glyph unicode="m" horiz-adv-x="1304" d="M52 0l159 760h194l-20 -92q113 110 238 110q86 0 132.5 -35.5t59.5 -98.5q39 57 113 95.5t153 38.5q91 0 142 -48.5t51 -128.5q0 -40 -20 -136l-98 -465h-205l97 465q18 87 18 98q0 32 -19 50.5t-57 18.5q-76 0 -137 -81q-43 -58 -74 -206l-72 -345h-206l96 460 q17 79 17 103q0 30 -20.5 49.5t-56.5 19.5q-34 0 -69.5 -20.5t-62.5 -55.5t-46 -90q-9 -26 -28 -117l-73 -349h-206z" />
<glyph unicode="n" horiz-adv-x="896" d="M62 0l159 760h194l-20 -98q73 63 136.5 89.5t133.5 26.5q94 0 148 -53.5t54 -142.5q0 -40 -24 -152l-89 -430h-206l91 432q20 96 20 115q0 39 -23.5 62t-64.5 23q-45 0 -100.5 -38t-86.5 -101q-23 -44 -52 -181l-65 -312h-205z" />
<glyph unicode="o" horiz-adv-x="896" d="M89 316q0 211 119 336.5t313 125.5q169 0 263.5 -92.5t94.5 -249.5q0 -185 -118.5 -319.5t-316.5 -134.5q-107 0 -190.5 43t-124 122t-40.5 169zM295 319q0 -82 44.5 -130t111.5 -48q85 0 142 72q81 103 81 250q0 73 -42.5 117t-109.5 44t-118.5 -41.5t-80 -120 t-28.5 -143.5z" />
<glyph unicode="p" horiz-adv-x="896" d="M-8 -290l219 1050h195l-16 -78q62 52 116.5 74t116.5 22q119 0 192 -82t73 -246q0 -205 -125 -347q-108 -121 -255 -121q-151 0 -228 123l-82 -395h-206zM335 324q0 -88 43.5 -137.5t101.5 -49.5q51 0 98.5 37t78.5 122.5t31 158.5q0 86 -41 131.5t-104 45.5 q-58 0 -106.5 -42t-75 -123.5t-26.5 -142.5z" />
<glyph unicode="q" horiz-adv-x="896" d="M87 299q0 122 49.5 238t137.5 178.5t190 62.5q165 0 238 -137l25 119h189l-219 -1050h-205l74 354q-55 -44 -103 -63t-109 -19q-121 0 -194 81t-73 236zM286 302q0 -76 41.5 -121.5t99.5 -45.5q53 0 101.5 35.5t79 117t30.5 157.5q0 85 -43.5 133.5t-101.5 48.5 q-47 0 -96 -37.5t-80 -123t-31 -164.5z" />
<glyph unicode="r" horiz-adv-x="571" d="M47 0l159 760h192l-31 -147q108 165 233 165q44 0 95 -22l-79 -168q-27 10 -59 10q-53 0 -107.5 -40t-85.5 -107t-61 -213l-50 -238h-206z" />
<glyph unicode="s" d="M32 213l199 31q27 -63 66.5 -89t107.5 -26q70 0 112 31q29 22 29 53q0 20 -15 37q-15 16 -85 39q-186 61 -230 97q-70 56 -70 146t67 155q94 91 279 91q147 0 222 -53.5t95 -145.5l-190 -33q-15 42 -48 63q-46 28 -111 28q-64 0 -92.5 -21.5t-28.5 -49.5q0 -29 29 -48 q18 -11 115 -40q151 -43 201 -86q72 -59 72 -143q0 -108 -91 -187.5t-256 -79.5t-255 60.5t-122 170.5z" />
<glyph unicode="t" horiz-adv-x="488" d="M110 608l32 152h100l25 122l236 142l-55 -264h125l-32 -152h-126l-66 -319q-18 -86 -18 -99q0 -23 15 -36.5t54 -13.5q14 0 68 5l-32 -152q-53 -11 -109 -11q-109 0 -158 42t-49 116q0 35 26 162l64 306h-100z" />
<glyph unicode="u" horiz-adv-x="896" d="M103 180q0 39 24 157l89 423h206l-94 -450q-17 -81 -17 -101q0 -33 24 -56.5t62 -23.5q28 0 54.5 10.5t54 31.5t50 48t41.5 72q14 33 30 107l75 362h206l-159 -760h-192l22 103q-126 -121 -275 -121q-93 0 -147 54t-54 144z" />
<glyph unicode="v" d="M110 760h201l54 -331q22 -135 27 -179q5 12 49 92.5t54 97.5l189 320h222l-467 -760h-177z" />
<glyph unicode="w" horiz-adv-x="1141" d="M105 760h183l53 -509l237 509h187l25 -509l236 509h206l-379 -760h-193l-37 484l-232 -484h-191z" />
<glyph unicode="x" d="M-32 0l351 390l-193 370h218l111 -217l193 217h250l-353 -394l192 -366h-219l-109 213l-189 -213h-252z" />
<glyph unicode="y" d="M9 -286l18 154q37 -11 73 -11q94 0 155 143l-133 760h205l52 -378q19 -146 21 -205q40 117 111 246l181 337h218l-470 -834q-58 -104 -91 -145.5t-80 -65.5t-113 -24q-65 0 -147 23z" />
<glyph unicode="z" horiz-adv-x="733" d="M24 0l30 139l416 461h-340l34 160h596l-25 -122l-420 -472h366l-35 -166h-622z" />
<glyph unicode="{" horiz-adv-x="571" d="M62 294l37 171q52 3 82.5 16.5t56 45t41.5 74t35 134.5q28 131 55.5 186t66.5 85.5t107 48.5q46 13 139 13h37l-37 -172q-81 0 -107.5 -10t-39.5 -32q-10 -15 -32 -105q-40 -159 -54 -193q-26 -63 -61 -102t-99 -75q43 -27 63 -67t20 -104q0 -25 -9 -77 q-24 -140 -30 -165.5t-6 -42.5q0 -20 10.5 -33.5t30.5 -20t90 -6.5l-38 -172h-38q-98 0 -147 16.5t-75.5 53.5t-26.5 96q0 48 25 162t25 152q0 62 -26.5 90.5t-94.5 32.5z" />
<glyph unicode="|" horiz-adv-x="410" d="M126 -309v1377h160v-1377h-160z" />
<glyph unicode="}" horiz-adv-x="571" d="M-125 -309l38 172q77 0 105 11t42 33q10 15 32 103q40 158 52 189q25 62 63.5 106t97.5 74q-47 36 -65 72.5t-18 99.5q0 26 9 76q22 138 28.5 166t6.5 48q0 19 -9 31t-29 18t-92 6l37 172h38q99 0 147.5 -16.5t75 -53t26.5 -94.5q0 -49 -25 -163t-25 -152q0 -63 27 -91.5 t96 -32.5l-38 -171q-63 -3 -100 -26t-63.5 -74.5t-52.5 -175.5t-53.5 -179t-66.5 -85.5t-107 -49.5q-46 -13 -139 -13h-38z" />
<glyph unicode="~" horiz-adv-x="856" d="M98 372v185q51 55 111 80q44 19 104 19q45 0 86.5 -11t149.5 -55q72 -29 113 -29q103 0 196 101v-194q-34 -36 -93.5 -66t-115.5 -30q-36 0 -73 9.5t-109 41.5q-110 48 -173 48q-101 0 -196 -99z" />
<glyph unicode="&#xa1;" horiz-adv-x="488" d="M17 -289l55 265l166 517h113l-66 -536l-52 -246h-216zM202 561l41 199h204l-42 -199h-203z" />
<glyph unicode="&#xa2;" d="M86 309q0 128 54.5 239t157.5 170.5t218 59.5q22 0 46 -2l111 271l87 -35l-106 -257q74 -30 120 -90t51 -142l-181 -18q-7 68 -49 106l-194 -474h11q49 0 93.5 34t76.5 115l189 -30q-46 -131 -142 -202.5t-221 -71.5q-31 0 -69 6l-111 -271l-87 35l107 261 q-73 34 -117.5 111t-44.5 185zM279 289q0 -77 35 -115l192 466q-69 -4 -121.5 -53.5t-79 -136t-26.5 -161.5z" />
<glyph unicode="&#xa3;" d="M30 159q72 31 125 86t76 104q17 36 24 93h-165l34 160h114q-12 62 -12 118q0 149 101 248.5t257 99.5q136 0 219 -77t92 -207l-184 -18q-12 77 -47 110t-88 33q-65 0 -113 -54.5t-48 -150.5q0 -36 11 -102h181l-33 -160h-140q-4 -81 -37 -144.5t-115 -137.5q53 22 106 22 q27 0 70 -8q62 -11 98 -11q79 0 163 37l61 -174q-62 -26 -97 -34q-46 -10 -95 -10q-70 0 -167 26.5t-159 26.5q-98 0 -210 -61z" />
<glyph unicode="&#xa4;" d="M97 768l119 127l97 -97q38 20 77 30t79 10q41 0 80.5 -10t76.5 -30l96 96l119 -121l-94 -96q20 -36 30 -75t10 -81q0 -41 -10 -80t-30 -76l96 -95l-120 -123l-97 98q-36 -20 -75 -30.5t-81 -10.5q-40 0 -79 10t-76 30l-93 -94l-122 121l93 94q-20 37 -30 76t-10 80 t9.5 79.5t28.5 73.5zM325 521q0 -60 42.5 -102t102.5 -42t102 42t42 102t-42 102.5t-102 42.5t-102.5 -42.5t-42.5 -102.5z" />
<glyph unicode="&#xa5;" d="M35 199l29 138h267l19 91h-267l29 138h194l-146 484h209l51 -186q20 -72 57 -263q86 172 175 309l91 140h234l-331 -484h200l-29 -138h-264l-19 -91h264l-29 -138h-264l-42 -199h-202l41 199h-267z" />
<glyph unicode="&#xa6;" horiz-adv-x="410" d="M126 258h160v-567h-160v567zM126 502v566h160v-566h-160z" />
<glyph unicode="&#xa7;" d="M32 -62l186 42q20 -79 57 -111.5t92 -32.5q49 0 74 23t25 57q0 24 -19.5 55t-186.5 192q-89 84 -124.5 141.5t-35.5 123.5q0 85 47.5 147.5t143.5 114.5q-43 69 -43 136q0 99 72.5 170.5t215.5 71.5q130 0 200 -61t85 -184l-185 -17q-4 63 -32.5 91.5t-75.5 28.5 q-43 0 -68.5 -25t-25.5 -65q0 -30 17 -59t106 -110q153 -137 189 -201t36 -128q0 -75 -47.5 -141.5t-138.5 -112.5q60 -83 60 -159q0 -97 -78 -166.5t-215 -69.5q-135 0 -222.5 69t-108.5 180zM277 455q0 -34 24 -68q16 -20 124 -124q75 -73 80 -78q51 19 84 58q20 26 20 58 q0 27 -17 57.5t-77 88.5q-133 129 -142 139q-57 -35 -76.5 -65.5t-19.5 -65.5z" />
<glyph unicode="&#xa8;" horiz-adv-x="488" d="M124 876l36 175h177l-37 -175h-176zM425 876l37 175h176l-37 -175h-176z" />
<glyph unicode="&#xa9;" horiz-adv-x="1080" d="M64 523q0 144 74 275t203.5 202t270.5 71t270.5 -71t204 -202t74.5 -275t-73 -273.5t-203 -202.5t-273 -73t-273 73t-202.5 202.5t-72.5 273.5zM172 523q0 -115 58.5 -219.5t163 -163t218.5 -58.5q115 0 219.5 58.5t163 163t58.5 219.5t-59.5 221t-164 162.5t-217.5 56.5 t-217 -56.5t-163.5 -162t-59.5 -221.5zM343 518q0 92 34.5 164.5t99 108t144.5 35.5q89 0 148 -42t92 -132l-116 -27q-20 52 -52 76t-76 24q-65 0 -106.5 -49t-41.5 -154t41 -154t98 -49q48 0 83 28t54 94l116 -39q-28 -90 -91 -138t-150 -48q-122 0 -199.5 80.5 t-77.5 221.5z" />
<glyph unicode="&#xaa;" horiz-adv-x="543" d="M120 677q0 58 33.5 97t98.5 56q42 10 203 26q10 38 10 58q0 18 -15 30t-48 12q-64 0 -96 -59l-138 19q30 73 90.5 112.5t151.5 39.5q100 0 147 -40.5t47 -101.5q0 -50 -29.5 -164.5t-29.5 -143.5q0 -38 15 -75h-138q-5 16 -7 34q-66 -45 -141 -45q-71 0 -112.5 41 t-41.5 104zM261 683q0 -20 15 -34t40 -14q38 0 64.5 24.5t43.5 95.5q-117 -14 -140 -30t-23 -42z" />
<glyph unicode="&#xab;" d="M120 395l295 305h173l-259 -318l95 -331h-144zM413 396l279 304h174l-253 -320l91 -329h-148z" />
<glyph unicode="&#xac;" horiz-adv-x="856" d="M118 585v184h734v-500h-184v316h-550z" />
<glyph unicode="&#xad;" horiz-adv-x="488" d="M57 279l41 199h399l-42 -199h-398z" />
<glyph unicode="&#xae;" horiz-adv-x="1080" d="M64 523q0 144 74 275.5t203.5 202t270.5 70.5t270.5 -70.5t204 -202t74.5 -275.5t-73 -273.5t-203 -202.5t-273 -73t-273 73t-202.5 202.5t-72.5 273.5zM173 523q0 -116 58 -220.5t162.5 -163t219.5 -58.5t219.5 58.5t163 163t58.5 220.5t-60 222t-164 162.5t-217 56.5 t-217 -56.5t-163.5 -162.5t-59.5 -222zM364 229v582h119q166 0 186 -1q58 -5 91 -23.5t54.5 -56t21.5 -83.5q0 -63 -41 -107.5t-116 -55.5q27 -10 41.5 -22t39.5 -45q6 -8 43 -70l68 -118h-146l-48 95q-50 95 -82 119.5t-82 24.5h-30v-239h-119zM483 560h48q102 0 126.5 8 t39 27.5t14.5 44.5q0 24 -14 43t-39.5 27.5t-126.5 8.5h-48v-159z" />
<glyph unicode="&#xaf;" horiz-adv-x="810" d="M100 1111v131h837v-131h-837z" />
<glyph unicode="&#xb0;" horiz-adv-x="586" d="M161 839q0 95 67 162t162 67q94 0 161 -67t67 -162q0 -94 -67 -161t-161 -67q-95 0 -162 67t-67 161zM280 839q0 -45 32 -77t78 -32q45 0 77 32t32 77t-32 77.5t-77 32.5q-46 0 -78 -32.5t-32 -77.5z" />
<glyph unicode="&#xb1;" horiz-adv-x="805" d="M93 0v188h734v-188h-734zM93 528v188h275v273h183v-273h276v-188h-276v-273h-183v273h-275z" />
<glyph unicode="&#xb2;" horiz-adv-x="488" d="M120 521q10 62 42.5 107t155.5 144q94 74 111 99t17 43q0 20 -15 34.5t-41 14.5q-28 0 -47 -18t-30 -67l-135 16q15 83 68.5 126t140.5 43q94 0 144 -44t50 -106q0 -44 -33 -94.5t-154 -137.5q-19 -13 -56 -47h203l-28 -113h-393z" />
<glyph unicode="&#xb3;" horiz-adv-x="488" d="M112 676l133 13q7 -44 23 -59t46 -15q40 0 63.5 21.5t23.5 51.5q0 27 -18.5 43.5t-52.5 16.5q-12 0 -33 -4l27 107q13 -1 22 -1q44 0 65.5 19t21.5 47q0 21 -12 31q-16 14 -42 14q-25 0 -43 -16t-30 -56l-129 21q24 67 58 97q61 56 154 56q87 0 134.5 -42.5t47.5 -101.5 q0 -30 -13.5 -58t-34.5 -41q-30 -18 -35 -22v-5q2 -5 25 -25q28 -26 28 -78q0 -65 -64 -121.5t-163 -56.5q-88 0 -139 42t-63 122z" />
<glyph unicode="&#xb4;" horiz-adv-x="488" d="M269 856l150 215h219l-232 -215h-137z" />
<glyph unicode="&#xb5;" horiz-adv-x="845" d="M-54 -294l222 1054h206l-73 -352l-19 -86q-4 -29 -4 -56q0 -59 34 -95t83 -36q57 0 101.5 45t73.5 182l84 398h203l-160 -760h-184l15 71q-56 -58 -87 -73.5t-67 -15.5q-47 0 -80 22t-64 77l-79 -375h-205z" />
<glyph unicode="&#xb6;" d="M64 753q0 75 29.5 138t79.5 99.5t117 50.5q40 9 157 9h427v-187h-81v-1152h-169v1152h-103v-1152h-174v750q-136 10 -209.5 87.5t-73.5 204.5z" />
<glyph unicode="&#xb7;" horiz-adv-x="407" d="M105 410v201h201v-201h-201z" />
<glyph unicode="&#xb8;" horiz-adv-x="488" d="M10 -301l34 83l41 -1q61 0 117 17q35 11 47 25.5t12 30.5q0 21 -19 35.5t-64 14.5q-23 0 -64 -6l24 70q52 13 94 13q79 0 119.5 -34t40.5 -84q0 -60 -63 -104q-88 -63 -250 -63q-45 0 -69 3z" />
<glyph unicode="&#xb9;" horiz-adv-x="488" d="M168 817l28 111q88 34 125 54q74 38 122 82h88l-135 -543h-140l88 352q-85 -40 -176 -56z" />
<glyph unicode="&#xba;" horiz-adv-x="536" d="M106 752q0 122 75 219t201 97q101 0 163.5 -62t62.5 -158q0 -69 -35 -149t-99 -124t-146 -44q-100 0 -161 61.5t-61 159.5zM251 735q0 -38 21.5 -60.5t56.5 -22.5q58 0 95.5 70t37.5 144q0 38 -21 60t-57 22q-58 0 -95.5 -68t-37.5 -145z" />
<glyph unicode="&#xbb;" d="M33 51l253 320l-91 329h148l143 -345l-278 -304h-175zM311 51l259 318l-95 331h144l160 -344l-296 -305h-172z" />
<glyph unicode="&#xbc;" horiz-adv-x="1223" d="M146 -44l961 1107h125l-961 -1107h-125zM168 816l28 111q88 34 125 53q74 40 122 83h88l-135 -543h-140l88 351q-85 -40 -176 -55zM734 76l25 101l339 333h120l-82 -334h75l-26 -100h-75l-27 -106h-124l27 106h-252zM894 176h119l43 163z" />
<glyph unicode="&#xbd;" horiz-adv-x="1223" d="M125 -44l960 1107h125l-961 -1107h-124zM168 816l28 111q4 2 11 4q144 50 236 132h88l-135 -543h-140l88 351l-15 -6q-70 -34 -161 -49zM765 -30q8 62 41 107t156 144q94 75 111 100t17 42q0 21 -15 35t-41 14q-28 0 -46.5 -17.5t-30.5 -67.5l-136 17q17 82 70 125 t140 43q95 0 144.5 -43.5t49.5 -106.5q0 -44 -33.5 -94t-153.5 -138q-18 -13 -56 -47h204l-28 -113h-393z" />
<glyph unicode="&#xbe;" horiz-adv-x="1223" d="M111 676l133 13q7 -44 23.5 -59t46.5 -15q40 0 63 21.5t23 51.5q0 27 -18 43.5t-53 16.5q-12 0 -33 -4l28 107q13 -1 21 -1q45 0 66 19t21 47q0 21 -12 31q-15 14 -41 14q-25 0 -43.5 -16t-30.5 -56l-129 21q24 67 58 97q61 56 154 56q87 0 135 -42.5t48 -101.5 q0 -30 -14 -58t-35 -41q-29 -18 -34 -22l-1 -5q3 -5 25 -25q29 -26 29 -78q0 -65 -64.5 -121.5t-163.5 -56.5q-87 0 -138.5 42t-63.5 122zM163 -44l961 1107h125l-961 -1107h-125zM734 76l25 101l339 333h119l-81 -334h75l-27 -100h-75l-26 -106h-124l27 106h-252zM894 176 h118l44 163z" />
<glyph unicode="&#xbf;" horiz-adv-x="896" d="M39 -44q0 63 37.5 125.5t204.5 201.5q104 87 128.5 121.5t35.5 93.5h184q-14 -96 -59.5 -166.5t-182.5 -189.5q-115 -100 -135.5 -132.5t-20.5 -62.5q0 -44 35 -73.5t108 -29.5q80 0 131 43.5t73 138.5l187 -32q-35 -139 -140 -220t-255 -81q-156 0 -243.5 77.5 t-87.5 185.5zM448 561l41 199h203l-41 -199h-203z" />
<glyph unicode="&#xc0;" horiz-adv-x="1059" d="M-16 0l593 1050h240l170 -1050h-204l-35 232h-416l-127 -232h-221zM407 407h314l-61 422zM543 1327h198l91 -214h-138z" />
<glyph unicode="&#xc1;" horiz-adv-x="1059" d="M-16 0l593 1050h240l170 -1050h-204l-35 232h-416l-127 -232h-221zM407 407h314l-61 422zM637 1110l150 215h219l-232 -215h-137z" />
<glyph unicode="&#xc2;" horiz-adv-x="1059" d="M-16 0l593 1050h240l170 -1050h-204l-35 232h-416l-127 -232h-221zM407 407h314l-61 422zM429 1112l213 216h192l87 -216h-142l-55 128l-126 -128h-169z" />
<glyph unicode="&#xc3;" horiz-adv-x="1059" d="M-16 0l593 1050h240l170 -1050h-204l-35 232h-416l-127 -232h-221zM407 407h314l-61 422zM457 1109q19 87 46 122q39 50 96 50q37 0 133 -35q56 -20 77 -20q16 0 27.5 10.5t21.5 45.5h92q-14 -88 -54.5 -130t-90.5 -42q-32 0 -103 28.5t-90 28.5q-22 0 -37.5 -12.5 t-27.5 -45.5h-90z" />
<glyph unicode="&#xc4;" horiz-adv-x="1059" d="M-16 0l593 1050h240l170 -1050h-204l-35 232h-416l-127 -232h-221zM407 407h314l-61 422zM484 1109l36 175h177l-37 -175h-176zM785 1109l37 175h176l-37 -175h-176z" />
<glyph unicode="&#xc5;" horiz-adv-x="1059" d="M-16 -13l593 1050h240l170 -1050h-204l-35 232h-416l-127 -232h-221zM407 394h314l-61 422zM560 1114q0 58 40 98.5t98 40.5q57 0 97.5 -40.5t40.5 -98.5q0 -57 -40.5 -97.5t-97.5 -40.5q-58 0 -98 40.5t-40 97.5zM638 1114q0 -25 17.5 -42.5t42.5 -17.5t42.5 17.5 t17.5 42.5t-17.5 43t-42.5 18t-42.5 -18t-17.5 -43z" />
<glyph unicode="&#xc6;" horiz-adv-x="1466" d="M-47 0l610 1050h990l-37 -176h-514l-50 -240h494l-37 -175h-493l-60 -284h555l-36 -175h-756l55 263h-350l-149 -263h-222zM425 438h285l91 436h-128z" />
<glyph unicode="&#xc7;" horiz-adv-x="1059" d="M139 434q0 179 72.5 327.5t201.5 227.5t281 79q170 0 275.5 -91.5t123.5 -249.5l-207 -20q-17 92 -66 133t-130 41q-90 0 -167.5 -54t-124 -170t-46.5 -231q0 -126 60.5 -194.5t150.5 -68.5q84 0 153.5 54t104.5 161l217 -33q-64 -177 -191 -270.5t-299 -93.5 q-192 0 -300.5 116t-108.5 337zM291 -297l34 83l41 -1q61 0 117 17q35 11 47 25.5t12 30.5q0 21 -19 35.5t-64 14.5q-23 0 -64 -6l24 70q52 13 94 13q79 0 119.5 -34t40.5 -84q0 -60 -63 -104q-88 -63 -250 -63q-45 0 -69 3z" />
<glyph unicode="&#xc8;" horiz-adv-x="978" d="M60 0l219 1050h779l-37 -176h-562l-50 -238h543l-36 -176h-544l-66 -285h611l-37 -175h-820zM559 1327h198l91 -214h-138z" />
<glyph unicode="&#xc9;" horiz-adv-x="978" d="M60 0l219 1050h779l-37 -176h-562l-50 -238h543l-36 -176h-544l-66 -285h611l-37 -175h-820zM620 1110l150 215h219l-232 -215h-137z" />
<glyph unicode="&#xca;" horiz-adv-x="978" d="M60 0l219 1050h779l-37 -176h-562l-50 -238h543l-36 -176h-544l-66 -285h611l-37 -175h-820zM405 1112l213 216h192l87 -216h-142l-55 128l-126 -128h-169z" />
<glyph unicode="&#xcb;" horiz-adv-x="978" d="M60 0l219 1050h779l-37 -176h-562l-50 -238h543l-36 -176h-544l-66 -285h611l-37 -175h-820zM450 1109l36 175h177l-37 -175h-176zM751 1109l37 175h176l-37 -175h-176z" />
<glyph unicode="&#xcc;" horiz-adv-x="407" d="M51 0l220 1050h215l-219 -1050h-216zM272 1327h198l91 -214h-138z" />
<glyph unicode="&#xcd;" horiz-adv-x="407" d="M51 0l220 1050h215l-219 -1050h-216zM293 1110l150 215h219l-232 -215h-137z" />
<glyph unicode="&#xce;" horiz-adv-x="407" d="M51 0l220 1050h215l-219 -1050h-216zM133 1112l213 216h192l87 -216h-142l-55 128l-126 -128h-169z" />
<glyph unicode="&#xcf;" horiz-adv-x="407" d="M51 0l220 1050h215l-219 -1050h-216zM150 1109l36 175h177l-37 -175h-176zM451 1109l37 175h176l-37 -175h-176z" />
<glyph unicode="&#xd0;" horiz-adv-x="1059" d="M54 459l27 127h107l99 464h279q119 0 152 -4q65 -6 116.5 -26t93 -56.5t72 -87t47 -117t16.5 -145.5q0 -170 -64.5 -299.5t-149 -198.5t-203.5 -99q-69 -17 -212 -17h-370l98 459h-108zM316 169h109q118 0 171.5 14.5t98.5 54.5q64 59 107.5 155.5t43.5 227.5 q0 111 -36.5 167.5t-88.5 74.5q-38 13 -133 13h-122l-61 -290h224l-28 -126h-224z" />
<glyph unicode="&#xd1;" horiz-adv-x="1059" d="M66 0l219 1050h202l284 -703l147 703h200l-219 -1050h-201l-283 705l-148 -705h-201zM470 1109q19 87 46 122q39 50 96 50q37 0 133 -35q56 -20 77 -20q16 0 27.5 10.5t21.5 45.5h92q-14 -88 -54.5 -130t-90.5 -42q-32 0 -103 28.5t-90 28.5q-22 0 -37.5 -12.5 t-27.5 -45.5h-90z" />
<glyph unicode="&#xd2;" horiz-adv-x="1141" d="M128 412q0 93 28 196q37 138 111.5 239.5t188.5 161t259 59.5q195 0 315 -121t120 -321q0 -166 -78 -321.5t-212 -239.5t-303 -84q-147 0 -246.5 67t-141 165t-41.5 199zM342 416q0 -108 65.5 -181t173.5 -73q87 0 167.5 57.5t133 174.5t52.5 228q0 124 -66.5 194.5 t-169.5 70.5q-158 0 -257 -147.5t-99 -323.5zM552 1327h198l91 -214h-138z" />
<glyph unicode="&#xd3;" horiz-adv-x="1141" d="M128 412q0 93 28 196q37 138 111.5 239.5t188.5 161t259 59.5q195 0 315 -121t120 -321q0 -166 -78 -321.5t-212 -239.5t-303 -84q-147 0 -246.5 67t-141 165t-41.5 199zM342 416q0 -108 65.5 -181t173.5 -73q87 0 167.5 57.5t133 174.5t52.5 228q0 124 -66.5 194.5 t-169.5 70.5q-158 0 -257 -147.5t-99 -323.5zM680 1110l150 215h219l-232 -215h-137z" />
<glyph unicode="&#xd4;" horiz-adv-x="1141" d="M128 412q0 93 28 196q37 138 111.5 239.5t188.5 161t259 59.5q195 0 315 -121t120 -321q0 -166 -78 -321.5t-212 -239.5t-303 -84q-147 0 -246.5 67t-141 165t-41.5 199zM342 416q0 -108 65.5 -181t173.5 -73q87 0 167.5 57.5t133 174.5t52.5 228q0 124 -66.5 194.5 t-169.5 70.5q-158 0 -257 -147.5t-99 -323.5zM487 1112l213 216h192l87 -216h-142l-55 128l-126 -128h-169z" />
<glyph unicode="&#xd5;" horiz-adv-x="1141" d="M128 412q0 93 28 196q37 138 111.5 239.5t188.5 161t259 59.5q195 0 315 -121t120 -321q0 -166 -78 -321.5t-212 -239.5t-303 -84q-147 0 -246.5 67t-141 165t-41.5 199zM342 416q0 -108 65.5 -181t173.5 -73q87 0 167.5 57.5t133 174.5t52.5 228q0 124 -66.5 194.5 t-169.5 70.5q-158 0 -257 -147.5t-99 -323.5zM483 1109q19 87 46 122q39 50 96 50q37 0 133 -35q56 -20 77 -20q16 0 27.5 10.5t21.5 45.5h92q-14 -88 -54.5 -130t-90.5 -42q-32 0 -103 28.5t-90 28.5q-22 0 -37.5 -12.5t-27.5 -45.5h-90z" />
<glyph unicode="&#xd6;" horiz-adv-x="1141" d="M128 412q0 93 28 196q37 138 111.5 239.5t188.5 161t259 59.5q195 0 315 -121t120 -321q0 -166 -78 -321.5t-212 -239.5t-303 -84q-147 0 -246.5 67t-141 165t-41.5 199zM342 416q0 -108 65.5 -181t173.5 -73q87 0 167.5 57.5t133 174.5t52.5 228q0 124 -66.5 194.5 t-169.5 70.5q-158 0 -257 -147.5t-99 -323.5zM471 1109l36 175h177l-37 -175h-176zM772 1109l37 175h176l-37 -175h-176z" />
<glyph unicode="&#xd7;" horiz-adv-x="856" d="M135 734l134 133l217 -217l216 216l130 -130l-216 -216l218 -219l-133 -133l-218 219l-217 -217l-129 131l216 216z" />
<glyph unicode="&#xd8;" horiz-adv-x="1141" d="M114 -6l107 129q-99 120 -99 285q0 168 75.5 329.5t209.5 246t301 84.5q148 0 246 -64l101 120l98 -82l-103 -123q94 -115 94 -294q0 -170 -80.5 -325.5t-213.5 -236.5t-294 -81q-142 0 -236 57l-105 -126zM337 423q0 -68 25 -130l463 555q-57 39 -133 39 q-90 0 -173 -59.5t-132.5 -175.5t-49.5 -229zM449 195q60 -40 130 -40q84 0 164.5 57.5t135.5 175t55 237.5q0 58 -28 120z" />
<glyph unicode="&#xd9;" horiz-adv-x="1059" d="M134 303q0 29 5 64q3 23 25 130l116 553h215l-118 -570l-30 -141q-3 -18 -3 -33q0 -63 45.5 -103t132.5 -40q78 0 129 29t79 87t56 197l120 574h216l-120 -575q-38 -181 -87 -277t-149.5 -156t-253.5 -60q-183 0 -280.5 90t-97.5 231zM528 1327h198l91 -214h-138z" />
<glyph unicode="&#xda;" horiz-adv-x="1059" d="M134 303q0 29 5 64q3 23 25 130l116 553h215l-118 -570l-30 -141q-3 -18 -3 -33q0 -63 45.5 -103t132.5 -40q78 0 129 29t79 87t56 197l120 574h216l-120 -575q-38 -181 -87 -277t-149.5 -156t-253.5 -60q-183 0 -280.5 90t-97.5 231zM568 1110l150 215h219l-232 -215 h-137z" />
<glyph unicode="&#xdb;" horiz-adv-x="1059" d="M134 303q0 29 5 64q3 23 25 130l116 553h215l-118 -570l-30 -141q-3 -18 -3 -33q0 -63 45.5 -103t132.5 -40q78 0 129 29t79 87t56 197l120 574h216l-120 -575q-38 -181 -87 -277t-149.5 -156t-253.5 -60q-183 0 -280.5 90t-97.5 231zM433 1112l213 216h192l87 -216h-142 l-55 128l-126 -128h-169z" />
<glyph unicode="&#xdc;" horiz-adv-x="1059" d="M134 303q0 29 5 64q3 23 25 130l116 553h215l-118 -570l-30 -141q-3 -18 -3 -33q0 -63 45.5 -103t132.5 -40q78 0 129 29t79 87t56 197l120 574h216l-120 -575q-38 -181 -87 -277t-149.5 -156t-253.5 -60q-183 0 -280.5 90t-97.5 231zM461 1109l36 175h177l-37 -175h-176 zM762 1109l37 175h176l-37 -175h-176z" />
<glyph unicode="&#xdd;" horiz-adv-x="978" d="M168 1050h230l130 -297q47 -106 63 -154q26 47 61 99l100 139l148 213h251l-482 -661l-81 -389h-216l86 409zM596 1110l150 215h219l-232 -215h-137z" />
<glyph unicode="&#xde;" horiz-adv-x="978" d="M59 0l224 1050h215l-42 -201h207q95 0 135 -7q53 -10 94.5 -42t68 -90t26.5 -127q0 -75 -30.5 -150.5t-75.5 -121t-97 -69t-140 -35.5q-50 -7 -189 -7h-139l-40 -200h-217zM354 374h66q171 0 228 21.5t90 69.5t33 104q0 35 -18 61.5t-45.5 36.5t-136.5 10h-153z" />
<glyph unicode="&#xdf;" horiz-adv-x="896" d="M52 0l143 688q31 142 65 210t117 119t212 51q132 0 198 -57.5t66 -142.5q0 -41 -17.5 -79.5t-69 -99t-63 -82.5t-11.5 -39q0 -18 8 -36q15 -27 68 -98t68.5 -110t15.5 -84q0 -65 -33.5 -127.5t-94 -96.5t-136.5 -34q-79 0 -149 39t-113 101l147 82q20 -30 40 -42t47 -12 q37 0 61.5 24.5t24.5 61.5q0 23 -9.5 44.5t-47.5 68.5q-64 81 -83.5 123.5t-19.5 77.5q0 33 17 71.5t82 126.5q34 45 42 63.5t8 36.5q0 30 -19 48t-52 18q-66 0 -109 -64q-29 -44 -61 -195l-137 -655h-205z" />
<glyph unicode="&#xe0;" d="M66 203q0 109 67.5 174t241.5 79q147 12 196 29q13 43 13 69q0 33 -26.5 55.5t-78.5 22.5q-55 0 -87 -23t-43 -64l-201 17q35 102 120.5 159t226.5 57q147 0 217 -59t70 -144q0 -34 -6 -73t-43 -203q-30 -136 -30 -191q0 -49 17 -108h-199q-13 42 -16 86 q-45 -50 -103.5 -77t-117.5 -27q-95 0 -156.5 62t-61.5 159zM259 221q0 -36 26 -60.5t68 -24.5q47 0 88 22.5t61.5 58t35.5 110.5l6 27q-18 -5 -49 -9q-155 -19 -202 -54q-34 -26 -34 -70zM372 1073h198l91 -214h-138z" />
<glyph unicode="&#xe1;" d="M66 203q0 109 67.5 174t241.5 79q147 12 196 29q13 43 13 69q0 33 -26.5 55.5t-78.5 22.5q-55 0 -87 -23t-43 -64l-201 17q35 102 120.5 159t226.5 57q147 0 217 -59t70 -144q0 -34 -6 -73t-43 -203q-30 -136 -30 -191q0 -49 17 -108h-199q-13 42 -16 86 q-45 -50 -103.5 -77t-117.5 -27q-95 0 -156.5 62t-61.5 159zM259 221q0 -36 26 -60.5t68 -24.5q47 0 88 22.5t61.5 58t35.5 110.5l6 27q-18 -5 -49 -9q-155 -19 -202 -54q-34 -26 -34 -70zM463 856l150 215h219l-232 -215h-137z" />
<glyph unicode="&#xe2;" d="M66 203q0 109 67.5 174t241.5 79q147 12 196 29q13 43 13 69q0 33 -26.5 55.5t-78.5 22.5q-55 0 -87 -23t-43 -64l-201 17q35 102 120.5 159t226.5 57q147 0 217 -59t70 -144q0 -34 -6 -73t-43 -203q-30 -136 -30 -191q0 -49 17 -108h-199q-13 42 -16 86 q-45 -50 -103.5 -77t-117.5 -27q-95 0 -156.5 62t-61.5 159zM259 221q0 -36 26 -60.5t68 -24.5q47 0 88 22.5t61.5 58t35.5 110.5l6 27q-18 -5 -49 -9q-155 -19 -202 -54q-34 -26 -34 -70zM270 857l213 216h192l87 -216h-142l-55 128l-126 -128h-169z" />
<glyph unicode="&#xe3;" d="M66 203q0 109 67.5 174t241.5 79q147 12 196 29q13 43 13 69q0 33 -26.5 55.5t-78.5 22.5q-55 0 -87 -23t-43 -64l-201 17q35 102 120.5 159t226.5 57q147 0 217 -59t70 -144q0 -34 -6 -73t-43 -203q-30 -136 -30 -191q0 -49 17 -108h-199q-13 42 -16 86 q-45 -50 -103.5 -77t-117.5 -27q-95 0 -156.5 62t-61.5 159zM259 221q0 -36 26 -60.5t68 -24.5q47 0 88 22.5t61.5 58t35.5 110.5l6 27q-18 -5 -49 -9q-155 -19 -202 -54q-34 -26 -34 -70zM314 869q19 87 46 122q39 50 96 50q37 0 133 -35q56 -20 77 -20q16 0 27.5 10.5 t21.5 45.5h92q-14 -88 -54.5 -130t-90.5 -42q-32 0 -103 28.5t-90 28.5q-22 0 -37.5 -12.5t-27.5 -45.5h-90z" />
<glyph unicode="&#xe4;" d="M66 203q0 109 67.5 174t241.5 79q147 12 196 29q13 43 13 69q0 33 -26.5 55.5t-78.5 22.5q-55 0 -87 -23t-43 -64l-201 17q35 102 120.5 159t226.5 57q147 0 217 -59t70 -144q0 -34 -6 -73t-43 -203q-30 -136 -30 -191q0 -49 17 -108h-199q-13 42 -16 86 q-45 -50 -103.5 -77t-117.5 -27q-95 0 -156.5 62t-61.5 159zM259 221q0 -36 26 -60.5t68 -24.5q47 0 88 22.5t61.5 58t35.5 110.5l6 27q-18 -5 -49 -9q-155 -19 -202 -54q-34 -26 -34 -70zM298 876l36 175h177l-37 -175h-176zM599 876l37 175h176l-37 -175h-176z" />
<glyph unicode="&#xe5;" d="M66 203q0 109 67.5 174t241.5 79q147 12 196 29q13 43 13 69q0 33 -26.5 55.5t-78.5 22.5q-55 0 -87 -23t-43 -64l-201 17q35 102 120.5 159t226.5 57q147 0 217 -59t70 -144q0 -34 -6 -73t-43 -203q-30 -136 -30 -191q0 -49 17 -108h-199q-13 42 -16 86 q-45 -50 -103.5 -77t-117.5 -27q-95 0 -156.5 62t-61.5 159zM259 221q0 -36 26 -60.5t68 -24.5q47 0 88 22.5t61.5 58t35.5 110.5l6 27q-18 -5 -49 -9q-155 -19 -202 -54q-34 -26 -34 -70zM386 967q0 58 40 98.5t98 40.5q57 0 97.5 -40.5t40.5 -98.5q0 -57 -40.5 -97.5 t-97.5 -40.5q-58 0 -98 40.5t-40 97.5zM464 967q0 -25 17.5 -42.5t42.5 -17.5t42.5 17.5t17.5 42.5t-17.5 43t-42.5 18t-42.5 -18t-17.5 -43z" />
<glyph unicode="&#xe6;" horiz-adv-x="1304" d="M45 205q0 85 41 141.5t104 78.5t179 33q152 13 195 30q6 23 6 40q0 51 -28 77.5t-87 26.5q-54 0 -83.5 -21t-45.5 -68l-197 20q27 95 114 155t228 60q103 0 166 -30q44 -21 71 -65q99 95 253 95q139 0 223.5 -86.5t84.5 -238.5q0 -70 -13 -138h-524q3 -83 48.5 -131 t109.5 -48q103 0 158 99l185 -30q-123 -223 -351 -223q-202 0 -283 178q-132 -178 -315 -178q-110 0 -174.5 62t-64.5 161zM231 223q0 -35 26.5 -60t70.5 -25q67 0 120 51q69 66 90 170q-205 -22 -269 -66q-38 -27 -38 -70zM748 440h335v24q0 82 -38 125t-101 43 q-66 0 -121 -49t-75 -143z" />
<glyph unicode="&#xe7;" d="M88 307q0 124 51.5 234.5t155.5 173.5t228 63q134 0 214.5 -70t90.5 -185l-196 -20q-7 63 -39 93.5t-83 30.5q-60 0 -111.5 -44.5t-79 -133t-27.5 -165.5q0 -68 33 -104.5t82 -36.5q50 0 95.5 36t71.5 107l200 -32q-49 -133 -146 -202.5t-224 -69.5q-146 0 -231 86.5 t-85 238.5zM197 -295l34 83l41 -1q61 0 117 17q35 11 47 25.5t12 30.5q0 21 -19 35.5t-64 14.5q-23 0 -64 -6l24 70q52 13 94 13q79 0 119.5 -34t40.5 -84q0 -60 -63 -104q-88 -63 -250 -63q-45 0 -69 3z" />
<glyph unicode="&#xe8;" d="M85 336q0 156 87 278q118 164 337 164q140 0 222 -86t82 -242q0 -74 -14 -134h-515q-1 -12 -1 -18q0 -76 43 -122.5t106 -46.5q102 0 159 106l184 -31q-53 -111 -143 -166.5t-202 -55.5q-153 0 -249 97t-96 257zM304 442h322q1 13 1 21q0 84 -38 126.5t-102 42.5 t-114.5 -48t-68.5 -142zM364 1073h198l91 -214h-138z" />
<glyph unicode="&#xe9;" d="M85 336q0 156 87 278q118 164 337 164q140 0 222 -86t82 -242q0 -74 -14 -134h-515q-1 -12 -1 -18q0 -76 43 -122.5t106 -46.5q102 0 159 106l184 -31q-53 -111 -143 -166.5t-202 -55.5q-153 0 -249 97t-96 257zM304 442h322q1 13 1 21q0 84 -38 126.5t-102 42.5 t-114.5 -48t-68.5 -142zM455 856l150 215h219l-232 -215h-137z" />
<glyph unicode="&#xea;" d="M85 336q0 156 87 278q118 164 337 164q140 0 222 -86t82 -242q0 -74 -14 -134h-515q-1 -12 -1 -18q0 -76 43 -122.5t106 -46.5q102 0 159 106l184 -31q-53 -111 -143 -166.5t-202 -55.5q-153 0 -249 97t-96 257zM270 857l213 216h192l87 -216h-142l-55 128l-126 -128 h-169zM304 442h322q1 13 1 21q0 84 -38 126.5t-102 42.5t-114.5 -48t-68.5 -142z" />
<glyph unicode="&#xeb;" d="M85 336q0 156 87 278q118 164 337 164q140 0 222 -86t82 -242q0 -74 -14 -134h-515q-1 -12 -1 -18q0 -76 43 -122.5t106 -46.5q102 0 159 106l184 -31q-53 -111 -143 -166.5t-202 -55.5q-153 0 -249 97t-96 257zM272 876l36 175h177l-37 -175h-176zM304 442h322 q1 13 1 21q0 84 -38 126.5t-102 42.5t-114.5 -48t-68.5 -142zM573 876l37 175h176l-37 -175h-176z" />
<glyph unicode="&#xec;" horiz-adv-x="407" d="M59 0l159 760h205l-159 -760h-205zM220 1073h198l91 -214h-138z" />
<glyph unicode="&#xed;" horiz-adv-x="407" d="M59 0l159 760h205l-159 -760h-205zM238 856l150 215h219l-232 -215h-137z" />
<glyph unicode="&#xee;" horiz-adv-x="407" d="M59 0l159 760h205l-159 -760h-205zM80 857l213 216h192l87 -216h-142l-55 128l-126 -128h-169z" />
<glyph unicode="&#xef;" horiz-adv-x="407" d="M59 0l159 760h205l-159 -760h-205zM99 876l36 175h177l-37 -175h-176zM400 876l37 175h176l-37 -175h-176z" />
<glyph unicode="&#xf0;" horiz-adv-x="896" d="M89 320q0 170 99 294q115 146 296 146q68 0 120 -23q39 -18 83 -65q-25 114 -74 204l-173 -63l-25 71l160 58q-30 48 -82 108h194l36 -54l145 54l23 -71l-128 -48q70 -127 97 -226t27 -226q0 -184 -97 -324q-120 -174 -337 -174q-156 0 -241 70q-123 99 -123 269z M291 301q0 -75 43 -118.5t112 -43.5q65 0 119 45t82 122t28 129q0 76 -43 120.5t-111 44.5q-109 0 -169.5 -99t-60.5 -200z" />
<glyph unicode="&#xf1;" horiz-adv-x="896" d="M62 0l159 760h194l-20 -98q73 63 136.5 89.5t133.5 26.5q94 0 148 -53.5t54 -142.5q0 -40 -24 -152l-89 -430h-206l91 432q20 96 20 115q0 39 -23.5 62t-64.5 23q-45 0 -100.5 -38t-86.5 -101q-23 -44 -52 -181l-65 -312h-205zM344 869q19 87 46 122q39 50 96 50 q37 0 133 -35q56 -20 77 -20q16 0 27.5 10.5t21.5 45.5h92q-14 -88 -54.5 -130t-90.5 -42q-32 0 -103 28.5t-90 28.5q-22 0 -37.5 -12.5t-27.5 -45.5h-90z" />
<glyph unicode="&#xf2;" horiz-adv-x="896" d="M89 316q0 211 119 336.5t313 125.5q169 0 263.5 -92.5t94.5 -249.5q0 -185 -118.5 -319.5t-316.5 -134.5q-107 0 -190.5 43t-124 122t-40.5 169zM295 319q0 -82 44.5 -130t111.5 -48q85 0 142 72q81 103 81 250q0 73 -42.5 117t-109.5 44t-118.5 -41.5t-80 -120 t-28.5 -143.5zM397 1073h198l91 -214h-138z" />
<glyph unicode="&#xf3;" horiz-adv-x="896" d="M89 316q0 211 119 336.5t313 125.5q169 0 263.5 -92.5t94.5 -249.5q0 -185 -118.5 -319.5t-316.5 -134.5q-107 0 -190.5 43t-124 122t-40.5 169zM295 319q0 -82 44.5 -130t111.5 -48q85 0 142 72q81 103 81 250q0 73 -42.5 117t-109.5 44t-118.5 -41.5t-80 -120 t-28.5 -143.5zM417 856l150 215h219l-232 -215h-137z" />
<glyph unicode="&#xf4;" horiz-adv-x="896" d="M89 316q0 211 119 336.5t313 125.5q169 0 263.5 -92.5t94.5 -249.5q0 -185 -118.5 -319.5t-316.5 -134.5q-107 0 -190.5 43t-124 122t-40.5 169zM295 319q0 -82 44.5 -130t111.5 -48q85 0 142 72q81 103 81 250q0 73 -42.5 117t-109.5 44t-118.5 -41.5t-80 -120 t-28.5 -143.5zM304 857l213 216h192l87 -216h-142l-55 128l-126 -128h-169z" />
<glyph unicode="&#xf5;" horiz-adv-x="896" d="M89 316q0 211 119 336.5t313 125.5q169 0 263.5 -92.5t94.5 -249.5q0 -185 -118.5 -319.5t-316.5 -134.5q-107 0 -190.5 43t-124 122t-40.5 169zM295 319q0 -82 44.5 -130t111.5 -48q85 0 142 72q81 103 81 250q0 73 -42.5 117t-109.5 44t-118.5 -41.5t-80 -120 t-28.5 -143.5zM315 869q19 87 46 122q39 50 96 50q37 0 133 -35q56 -20 77 -20q16 0 27.5 10.5t21.5 45.5h92q-14 -88 -54.5 -130t-90.5 -42q-32 0 -103 28.5t-90 28.5q-22 0 -37.5 -12.5t-27.5 -45.5h-90z" />
<glyph unicode="&#xf6;" horiz-adv-x="896" d="M89 316q0 211 119 336.5t313 125.5q169 0 263.5 -92.5t94.5 -249.5q0 -185 -118.5 -319.5t-316.5 -134.5q-107 0 -190.5 43t-124 122t-40.5 169zM295 319q0 -82 44.5 -130t111.5 -48q85 0 142 72q81 103 81 250q0 73 -42.5 117t-109.5 44t-118.5 -41.5t-80 -120 t-28.5 -143.5zM306 876l36 175h177l-37 -175h-176zM607 876l37 175h176l-37 -175h-176z" />
<glyph unicode="&#xf7;" horiz-adv-x="805" d="M93 424v188h734v-188h-734zM359 132v202h202v-202h-202zM359 702v202h202v-202h-202z" />
<glyph unicode="&#xf8;" horiz-adv-x="896" d="M77 -8l88 101q-78 92 -78 232q0 164 90 291q115 162 343 162q118 0 197 -43l89 103l80 -68l-88 -101q78 -90 78 -234q0 -184 -118 -318.5t-316 -134.5q-111 0 -196 46l-91 -105zM279 304q0 -33 10 -66l317 367q-39 24 -90 24q-44 0 -80 -18t-70 -58t-56 -96 q-31 -79 -31 -153zM354 155q40 -23 90 -23q67 0 121 42t86 125t32 153q0 33 -12 69z" />
<glyph unicode="&#xf9;" horiz-adv-x="896" d="M103 180q0 39 24 157l89 423h206l-94 -450q-17 -81 -17 -101q0 -33 24 -56.5t62 -23.5q28 0 54.5 10.5t54 31.5t50 48t41.5 72q14 33 30 107l75 362h206l-159 -760h-192l22 103q-126 -121 -275 -121q-93 0 -147 54t-54 144zM422 1073h198l91 -214h-138z" />
<glyph unicode="&#xfa;" horiz-adv-x="896" d="M103 180q0 39 24 157l89 423h206l-94 -450q-17 -81 -17 -101q0 -33 24 -56.5t62 -23.5q28 0 54.5 10.5t54 31.5t50 48t41.5 72q14 33 30 107l75 362h206l-159 -760h-192l22 103q-126 -121 -275 -121q-93 0 -147 54t-54 144zM451 856l150 215h219l-232 -215h-137z" />
<glyph unicode="&#xfb;" horiz-adv-x="896" d="M103 180q0 39 24 157l89 423h206l-94 -450q-17 -81 -17 -101q0 -33 24 -56.5t62 -23.5q28 0 54.5 10.5t54 31.5t50 48t41.5 72q14 33 30 107l75 362h206l-159 -760h-192l22 103q-126 -121 -275 -121q-93 0 -147 54t-54 144zM312 857l213 216h192l87 -216h-142l-55 128 l-126 -128h-169z" />
<glyph unicode="&#xfc;" horiz-adv-x="896" d="M103 180q0 39 24 157l89 423h206l-94 -450q-17 -81 -17 -101q0 -33 24 -56.5t62 -23.5q28 0 54.5 10.5t54 31.5t50 48t41.5 72q14 33 30 107l75 362h206l-159 -760h-192l22 103q-126 -121 -275 -121q-93 0 -147 54t-54 144zM348 876l36 175h177l-37 -175h-176zM649 876 l37 175h176l-37 -175h-176z" />
<glyph unicode="&#xfd;" d="M9 -286l18 154q37 -11 73 -11q94 0 155 143l-133 760h205l52 -378q19 -146 21 -205q40 117 111 246l181 337h218l-470 -834q-58 -104 -91 -145.5t-80 -65.5t-113 -24q-65 0 -147 23zM395 856l150 215h219l-232 -215h-137z" />
<glyph unicode="&#xfe;" horiz-adv-x="896" d="M-14 -290l285 1340h206l-73 -352q104 80 215 80q119 0 192 -82t73 -245q0 -206 -126 -348q-106 -121 -254 -121q-151 0 -228 123l-84 -395h-206zM331 324q0 -88 43 -137.5t102 -49.5q51 0 98 37t78.5 122.5t31.5 158.5q0 86 -41 131.5t-103 45.5q-60 0 -108 -42 t-74.5 -123t-26.5 -143z" />
<glyph unicode="&#xff;" d="M9 -286l18 154q37 -11 73 -11q94 0 155 143l-133 760h205l52 -378q19 -146 21 -205q40 117 111 246l181 337h218l-470 -834q-58 -104 -91 -145.5t-80 -65.5t-113 -24q-65 0 -147 23zM284 876l36 175h177l-37 -175h-176zM585 876l37 175h176l-37 -175h-176z" />
<glyph unicode="&#x152;" horiz-adv-x="1466" d="M101 411q0 184 71.5 342.5t198 236.5t252.5 78q82 0 149.5 -36.5t101.5 -99.5l25 118h683l-37 -176h-477l-49 -234h463l-36 -175h-464l-61 -290h526l-36 -175h-732l18 84q-45 -52 -98.5 -77t-128.5 -25q-157 0 -263 114.5t-106 314.5zM294 387q0 -108 59 -169.5 t154 -61.5q68 0 119 32t85 89.5t61 167.5q37 153 37 246t-53 148t-137 55q-91 0 -165.5 -65t-121.5 -209q-38 -116 -38 -233z" />
<glyph unicode="&#x153;" horiz-adv-x="1384" d="M85 324q0 117 51 225.5t149.5 168.5t241.5 60q84 0 151 -26.5t116 -79.5q122 106 280 106q144 0 227 -86t83 -244q0 -74 -18 -134h-513q-1 -88 42 -136.5t106 -48.5q106 0 161 107l183 -33q-123 -221 -345 -221q-169 0 -265 114q-57 -57 -130 -85.5t-163 -28.5 q-107 0 -189 41.5t-125 123t-43 177.5zM290 297q0 -69 43.5 -113t109.5 -44q103 0 163.5 94t60.5 211q0 86 -43.5 132.5t-110.5 46.5q-87 0 -142 -70q-81 -102 -81 -257zM874 441h320q1 14 1 25q0 82 -37.5 124t-99.5 42q-63 0 -111 -44.5t-73 -146.5z" />
<glyph unicode="&#x178;" horiz-adv-x="978" d="M168 1050h230l130 -297q47 -106 63 -154q26 47 61 99l100 139l148 213h251l-482 -661l-81 -389h-216l86 409zM419 1109l36 175h177l-37 -175h-176zM720 1109l37 175h176l-37 -175h-176z" />
<glyph unicode="&#x2c6;" horiz-adv-x="488" d="M82 857l213 216h192l87 -216h-142l-55 128l-126 -128h-169z" />
<glyph unicode="&#x2dc;" horiz-adv-x="488" d="M136 869q19 87 46 122q39 50 96 50q37 0 133 -35q56 -20 77 -20q16 0 27.5 10.5t21.5 45.5h92q-14 -88 -54.5 -130t-90.5 -42q-32 0 -103 28.5t-90 28.5q-22 0 -37.5 -12.5t-27.5 -45.5h-90z" />
<glyph unicode="&#x2000;" horiz-adv-x="682" />
<glyph unicode="&#x2001;" horiz-adv-x="1365" />
<glyph unicode="&#x2002;" horiz-adv-x="682" />
<glyph unicode="&#x2003;" horiz-adv-x="1365" />
<glyph unicode="&#x2004;" horiz-adv-x="455" />
<glyph unicode="&#x2005;" horiz-adv-x="341" />
<glyph unicode="&#x2006;" horiz-adv-x="227" />
<glyph unicode="&#x2007;" horiz-adv-x="227" />
<glyph unicode="&#x2008;" horiz-adv-x="170" />
<glyph unicode="&#x2009;" horiz-adv-x="273" />
<glyph unicode="&#x200a;" horiz-adv-x="75" />
<glyph unicode="&#x2010;" horiz-adv-x="488" d="M57 279l41 199h399l-42 -199h-398z" />
<glyph unicode="&#x2011;" horiz-adv-x="488" d="M57 279l41 199h399l-42 -199h-398z" />
<glyph unicode="&#x2012;" horiz-adv-x="488" d="M57 279l41 199h399l-42 -199h-398z" />
<glyph unicode="&#x2013;" d="M-3 305v150h816v-150h-816z" />
<glyph unicode="&#x2014;" horiz-adv-x="1466" d="M0 305v150h1466v-150h-1466z" />
<glyph unicode="&#x2018;" horiz-adv-x="407" d="M160 635l34 164q30 143 94.5 202t167.5 61l-20 -95q-52 -13 -79.5 -42t-42.5 -92h95l-42 -198h-207z" />
<glyph unicode="&#x2019;" horiz-adv-x="407" d="M181 623l20 95q52 12 80 41.5t42 91.5h-95l43 199h207l-35 -164q-29 -143 -94 -202t-168 -61z" />
<glyph unicode="&#x201a;" horiz-adv-x="407" d="M15 -228l20 96q52 11 80 40.5t42 91.5h-95l43 198h206l-34 -164q-29 -141 -94 -200.5t-168 -61.5z" />
<glyph unicode="&#x201c;" horiz-adv-x="733" d="M183 635l35 164q30 143 94.5 202t167.5 61l-20 -95q-52 -13 -80 -42t-42 -92h94l-41 -198h-208zM529 635l34 164q30 143 94.5 202t168.5 61l-20 -95q-52 -13 -80 -42t-43 -92h95l-42 -198h-207z" />
<glyph unicode="&#x201d;" horiz-adv-x="733" d="M188 623l20 95q52 12 80 41.5t42 91.5h-94l42 199h207l-35 -164q-29 -143 -94 -202t-168 -61zM534 623l19 95q52 12 80.5 41.5t42.5 91.5h-95l42 199h208l-35 -164q-30 -143 -94.5 -202t-167.5 -61z" />
<glyph unicode="&#x201e;" horiz-adv-x="733" d="M5 -228l20 96q52 11 80 40.5t42 91.5h-95l43 198h206l-34 -164q-29 -141 -94 -200.5t-168 -61.5zM351 -228l19 96q52 11 80 40.5t43 91.5h-95l42 198h207l-34 -164q-30 -141 -95 -200.5t-167 -61.5z" />
<glyph unicode="&#x2022;" horiz-adv-x="513" d="M119 518q0 88 62 150t150 62q87 0 149 -62t62 -150t-62 -150t-149 -62q-88 0 -150 62.5t-62 149.5z" />
<glyph unicode="&#x2026;" horiz-adv-x="1466" d="M136 0l42 198h203l-42 -198h-203zM611 0l41 198h204l-42 -198h-203zM1086 0l42 198h202l-41 -198h-203z" />
<glyph unicode="&#x202f;" horiz-adv-x="273" />
<glyph unicode="&#x2039;" horiz-adv-x="488" d="M87 395l295 305h173l-259 -318l95 -331h-144z" />
<glyph unicode="&#x203a;" horiz-adv-x="488" d="M14 51l253 320l-90 329h147l144 -345l-279 -304h-175z" />
<glyph unicode="&#x205f;" horiz-adv-x="341" />
<glyph unicode="&#x20ac;" d="M39 368l22 111h81q3 34 11 95h-114l22 110h117q56 170 196 278q135 106 320 106q144 0 243 -67l-79 -194q-54 74 -168 74q-192 0 -284 -197h357l-22 -110h-369q-6 -23 -15 -95h366l-21 -111h-350q5 -84 65.5 -144.5t145.5 -60.5q127 0 221 71l-47 -218q-94 -35 -189 -35 q-190 0 -295 111q-98 102 -113 276h-101z" />
<glyph unicode="&#x2122;" horiz-adv-x="1466" d="M212 948v102h476v-102h-176v-485h-119v485h-181zM759 463v587h185l107 -404l107 404h186v-587h-113v468l-127 -468h-107l-126 468v-468h-112z" />
<glyph unicode="&#x25fc;" horiz-adv-x="760" d="M0 0v760h760v-760h-760z" />
</font>
</defs>
</svg>
